<?xml version="1.0" encoding="UTF-8" standalone="no"?>
<svg width="91px" height="91px" viewBox="0 0 91 91" version="1.1" xmlns="http://www.w3.org/2000/svg" xmlns:xlink="http://www.w3.org/1999/xlink">
    <!-- Generator: Sketch 43.2 (39069) - http://www.bohemiancoding.com/sketch -->
    <title>Behance</title>
    <desc>Created with Sketch.</desc>
    <defs>
        <path d="M0,12.0073894 C0,5.37589133 5.37180862,0 12.0067083,0 L11.7974941,0 C18.428616,0 29.1680039,0 35.8082215,0 L25.8291524,0 C32.458789,0 43.2065327,0 49.8369691,0 L78.9485851,0 C85.5780995,0 90.9523828,5.366688 90.9523828,12.0073894 L90.9523828,78.9449934 C90.9523828,85.5764914 85.5856948,90.9523828 78.9449934,90.9523828 L12.0073894,90.9523828 C5.37589133,90.9523828 0,85.5856948 0,78.9449934 L0,12.0073894 Z" id="path-1"></path>
    </defs>
    <g id="Page-1" stroke="none" stroke-width="1" fill="none" fill-rule="evenodd">
        <g id="Behance">
            <g id="Rectangle">
                <use fill="#EEF0F2" fill-rule="evenodd" xlink:href="#path-1"></use>
                <path stroke="#292F36" stroke-width="5" d="M12.0067083,2.5 C17.2920976,2.5 17.3748927,2.5 23.8138885,2.5 C30.3223162,2.5 30.3223162,2.5 35.8082215,2.5 L35.8082215,-2.5 L25.8291524,-2.5 L25.8291524,2.5 C31.3167261,2.5 31.3167261,2.5 37.8340265,2.5 C44.3500613,2.5 44.3500613,2.5 49.8369691,2.5 L78.9485851,2.5 C84.2006958,2.5 88.4523828,6.75070741 88.4523828,12.0073894 L88.4523828,78.9449934 C88.4523828,84.1992561 84.2015079,88.4523828 78.9449934,88.4523828 L12.0073894,88.4523828 C6.75312666,88.4523828 2.5,84.2015079 2.5,78.9449934 L2.5,12.0073894 C2.5,6.75514474 6.75397865,2.5 12.0067083,2.5 Z"></path>
            </g>
            <path d="M23.0344044,69.0196676 C20.579286,69.0196676 18.6064525,68.8223842 17.1158449,68.4278116 C15.6252372,68.033239 14.4744177,67.4742695 13.6633518,66.7508864 C12.8522859,66.0275033 12.3042766,65.1397283 12.0193075,64.0875346 C11.7343384,63.035341 11.5260948,61.8516409 11.3945706,60.5363989 C11.2630464,59.0019499 11.1644048,56.9743155 11.0986427,54.4534349 C11.0328806,51.9325543 11,49.3130699 11,46.594903 C11,45.279661 11.0109602,43.8877174 11.0328809,42.4190305 C11.0548016,40.9503435 11.076722,39.503599 11.0986427,38.0787535 C11.1205634,36.6539079 11.1534439,35.3277254 11.1972853,34.1001662 C11.2411267,32.872607 11.3068878,31.8204291 11.3945706,30.9436011 C11.5260948,29.5845177 11.7452986,28.3569769 12.0521884,27.2609418 C12.3590782,26.1649068 12.939968,25.2223308 13.7948753,24.4331856 C14.6497827,23.6440404 15.8554031,23.0412302 17.4117729,22.6247368 C18.9681426,22.2082435 21.0396177,22 23.6262604,22 C29.5010081,22 33.8960427,23.0850584 36.8114958,25.2552078 C39.726949,27.4253571 41.1846537,30.5051693 41.1846537,34.4947368 C41.1846537,36.5552827 40.7352861,38.462355 39.8365374,40.2160111 C38.9377887,41.9696671 37.3924025,43.2848894 35.2003324,44.1617175 C36.4278916,44.3809245 37.5458306,44.8412523 38.5541828,45.5427147 C39.5625351,46.2441771 40.4283897,47.0881114 41.1517729,48.0745429 C41.875156,49.0609745 42.4231653,50.156993 42.7958172,51.3626316 C43.1684691,52.5682701 43.3547922,53.7848507 43.3547922,55.01241 C43.3547922,56.5907004 43.0259867,58.2018477 42.3683657,59.8459003 C41.7107446,61.4899528 40.5928057,62.9914983 39.0145152,64.3505817 C37.4362248,65.7096652 35.3428293,66.8276041 32.7342659,67.7044321 C30.1257026,68.5812602 26.8924477,69.0196676 23.0344044,69.0196676 Z M36.778615,54.8151247 C36.778615,53.2368342 36.4169288,51.9654527 35.6935457,51.0009418 C34.9701626,50.036431 34.0385468,49.3020986 32.8986704,48.7979224 C31.7587939,48.2937463 30.4874124,47.9539806 29.0844875,47.778615 C27.6815627,47.6032494 26.2786589,47.5155679 24.8757341,47.5155679 L21.4561219,47.5155679 C20.2724041,47.5155679 19.1763855,47.5374882 18.1680332,47.5813296 C18.1241918,48.5019991 18.0803511,49.444575 18.0365097,50.4090859 C17.9926683,51.3735967 17.9597877,52.2832921 17.937867,53.1381994 C17.9159463,53.9931068 17.9049861,54.7383994 17.9049861,55.3740997 L17.9049861,56.7222161 C17.9049861,57.9059339 17.9926676,58.8923506 18.1680332,59.6814958 C18.3433988,60.4706411 18.6722044,61.1063318 19.1544598,61.5885873 C19.6367152,62.0708427 20.327207,62.4106084 21.2259557,62.6078947 C22.1247044,62.805181 23.2755239,62.9038227 24.6784488,62.9038227 C28.5364921,62.9038227 31.5176626,62.2242912 33.6220499,60.8652078 C35.7264371,59.5061243 36.778615,57.4894501 36.778615,54.8151247 Z M24.612687,28.2473684 C23.1659207,28.2473684 21.9931809,28.3679305 21.0944321,28.6090582 C20.1956834,28.8501859 19.5161519,29.1680313 19.0558172,29.5626039 C18.5954825,29.9571765 18.2885973,30.4394247 18.1351524,31.0093629 C17.9817075,31.5793011 17.9049861,32.1930715 17.9049861,32.8506925 L17.9049861,42.0573407 C18.5187658,42.1011821 19.1654167,42.1231025 19.8449584,42.1231025 L21.7849307,42.1231025 C23.3632212,42.1231025 24.9086074,42.0135006 26.4211357,41.7942936 C27.9336641,41.5750866 29.3036873,41.2024403 30.5312465,40.6763435 C31.7588058,40.1502467 32.7452225,39.4268744 33.4905263,38.506205 C34.2358301,37.5855356 34.6084765,36.4018355 34.6084765,34.9550693 C34.6084765,32.9822062 33.8083829,31.3710589 32.2081717,30.1215789 C30.6079606,28.872099 28.0761577,28.2473684 24.612687,28.2473684 Z M65.4234619,56.9195014 C63.8890129,56.9195014 62.2778656,56.7989393 60.5899716,56.5578116 C58.9020777,56.3166839 57.0717266,55.8015552 55.0988636,55.01241 C55.4934362,57.6867354 56.600415,59.7034096 58.4198331,61.0624931 C60.2392513,62.4215765 62.8587357,63.101108 66.278365,63.101108 C67.5059242,63.101108 68.612903,63.0243867 69.5993345,62.8709418 C70.585766,62.7174969 71.4516207,62.542134 72.1969245,62.3448476 C72.9422283,62.1475613 73.5998395,61.9721984 74.1697777,61.8187535 C74.7397159,61.6653086 75.2658048,61.5885873 75.7480603,61.5885873 C76.3618399,61.5885873 76.9536899,61.7749104 77.5236281,62.1475623 C78.0935663,62.5202142 78.3785312,63.1449448 78.3785312,64.0217729 C78.3785312,65.1178079 77.9291635,66.0165431 77.0304148,66.7180055 C76.1316661,67.419468 75.0356475,67.9784374 73.7423262,68.3949307 C72.4490049,68.8114241 71.0789816,69.0963889 69.6322154,69.2498338 C68.1854491,69.4032787 66.9140676,69.48 65.8180326,69.48 C63.2313899,69.48 60.8530296,69.1292741 58.6828802,68.4278116 C56.5127308,67.7263492 54.6385391,66.6632112 53.0602486,65.2383657 C51.4819582,63.8135201 50.2544174,62.0489302 49.3775893,59.9445429 C48.5007613,57.8401557 48.0623539,55.385074 48.0623539,52.5792244 C48.0623539,49.8610575 48.4898011,47.4498166 49.3447085,45.3454294 C50.1996158,43.2410421 51.3723557,41.465492 52.8629633,40.0187258 C54.3535709,38.5719595 56.1181609,37.4759409 58.156786,36.7306371 C60.1954112,35.9853333 62.3984085,35.612687 64.7658442,35.612687 C66.607183,35.612687 68.3936933,35.8538111 70.1254287,36.3360665 C71.857164,36.8183219 73.39159,37.5416942 74.7287528,38.506205 C76.0659155,39.4707158 77.1400137,40.6872964 77.9510796,42.1559834 C78.7621456,43.6246703 79.1676724,45.3454195 79.1676724,47.3182825 C79.1676724,49.0719386 78.8388669,50.5625239 78.1812459,51.7900831 C77.5236248,53.0176423 76.592009,54.0040591 75.3863705,54.7493629 C74.180732,55.4946667 72.7339874,56.042676 71.0460935,56.3934072 C69.3581996,56.7441384 67.4840078,56.9195014 65.4234619,56.9195014 Z M64.9631295,41.6627701 C63.7794117,41.6627701 62.6395523,41.8052525 61.5435173,42.0902216 C60.4474823,42.3751907 59.4501054,42.8355185 58.5513567,43.4712188 C57.6526079,44.1069192 56.8963551,44.9398933 56.2825755,45.9701662 C55.6687959,47.0004391 55.2523088,48.2827809 55.0331018,49.8172299 C56.699075,50.5625337 58.3211826,51.0776625 59.899473,51.3626316 C61.4777634,51.6476007 63.1437117,51.7900831 64.8973677,51.7900831 C67.4840104,51.7900831 69.4020429,51.4722377 70.6515229,50.8365374 C71.9010028,50.2008371 72.5257334,49.0500176 72.5257334,47.3840443 C72.5257334,45.8495953 71.9448435,44.5124526 70.7830464,43.3725762 C69.6212493,42.2326997 67.6812964,41.6627701 64.9631295,41.6627701 Z" id="Be" fill="#52D1DC"></path>
            <path d="M73.866,31.1104545 C71.9451419,31.1939701 69.7320125,31.2670451 67.2265455,31.3296818 C64.7210784,31.3923185 61.7563202,31.4236364 58.3321818,31.4236364 C56.9124171,31.4236364 55.7014596,31.4027578 54.6992727,31.361 C53.6970859,31.3192422 52.8828213,31.20441 52.2564545,31.0165 C51.6300878,30.82859 51.170759,30.5258506 50.8784545,30.1082727 C50.5861501,29.6906949 50.44,29.1060947 50.44,28.3544545 C50.44,27.9786345 50.4817572,27.6341379 50.5652727,27.3209545 C50.6487883,27.0077712 50.8366955,26.7259103 51.129,26.4753636 C51.4213045,26.2248169 51.8284368,26.0055918 52.3504091,25.8176818 C52.8723814,25.6297718 53.5509352,25.494061 54.3860909,25.4105455 C55.0124577,25.3687877 55.56574,25.3270305 56.0459545,25.2852727 C56.5261691,25.2435149 56.9959371,25.2121971 57.4552727,25.1913182 C57.9146084,25.1704393 58.405255,25.16 58.9272273,25.16 L60.775,25.16 C63.0299204,25.16 65.2012926,25.1704393 67.2891818,25.1913182 C69.377071,25.2121971 71.5484433,25.2852721 73.8033636,25.4105455 C74.8055505,25.494061 75.5780579,25.6088932 76.1209091,25.7550455 C76.6637603,25.9011977 77.0813319,26.0995442 77.3736364,26.3500909 C77.6659409,26.6006376 77.8434088,26.8929377 77.9060455,27.227 C77.9686821,27.5610623 78,27.9368767 78,28.3544545 C78,29.1060947 77.7390178,29.732452 77.2170455,30.2335455 C76.6950731,30.7346389 75.5780692,31.026939 73.866,31.1104545 Z" id="-" fill="#52D1DC"></path>
        </g>
    </g>
</svg>