<?xml version="1.0" encoding="UTF-8" standalone="no"?>
<svg width="92px" height="92px" viewBox="0 0 92 92" version="1.1" xmlns="http://www.w3.org/2000/svg" xmlns:xlink="http://www.w3.org/1999/xlink">
    <!-- Generator: Sketch 42 (36781) - http://www.bohemiancoding.com/sketch -->
    <title>Behance</title>
    <desc>Created with Sketch.</desc>
    <defs>
        <path d="M0.761904762,35.7692941 C0.761904762,29.1377961 6.13371338,23.7619048 12.7686131,23.7619048 L12.5593989,23.7619048 C19.1905208,23.7619048 29.9299087,23.7619048 36.5701262,23.7619048 L26.5910571,23.7619048 C33.2206938,23.7619048 43.9684375,23.7619048 50.5988739,23.7619048 L79.7104898,23.7619048 C86.3400042,23.7619048 91.7142875,29.1285928 91.7142875,35.7692941 L91.7142875,102.706898 C91.7142875,109.338396 86.3475995,114.714288 79.7068982,114.714288 L12.7692941,114.714288 C6.13779609,114.714288 0.761904762,109.3476 0.761904762,102.706898 L0.761904762,35.7692941 Z" id="path-1"></path>
        <mask id="mask-2" maskContentUnits="userSpaceOnUse" maskUnits="objectBoundingBox" x="0" y="0" width="90.9523828" height="90.9523828" fill="white">
            <use xlink:href="#path-1"></use>
        </mask>
    </defs>
    <g id="Page-1" stroke="none" stroke-width="1" fill="none" fill-rule="evenodd">
        <g id="Behance" transform="translate(0.000000, -23.000000)">
            <use id="Rectangle" stroke="#292F36" mask="url(#mask-2)" stroke-width="6" fill="#52D1DC" xlink:href="#path-1"></use>
            <text id="Be" font-family="Sniglet-Regular, Sniglet" font-size="72" font-weight="normal" letter-spacing="0.78840363" fill="#EEF0F2">
                <tspan x="6" y="92">Be</tspan>
            </text>
            <text id="-" font-family="Sniglet-Regular, Sniglet" font-size="72" font-weight="normal" letter-spacing="0.78840363" fill="#EEF0F2">
                <tspan x="51" y="69">-</tspan>
            </text>
        </g>
    </g>
</svg>