<?xml version="1.0" encoding="UTF-8" standalone="no"?>
<svg width="42px" height="66px" viewBox="0 0 42 66" version="1.1" xmlns="http://www.w3.org/2000/svg" xmlns:xlink="http://www.w3.org/1999/xlink">
    <!-- Generator: Sketch 39.1 (31720) - http://www.bohemiancoding.com/sketch -->
    <title>Group 3</title>
    <desc>Created with Sketch.</desc>
    <defs></defs>
    <g id="Page-1" stroke="none" stroke-width="1" fill="none" fill-rule="evenodd">
        <g id="Group-3" transform="translate(-7.000000, -7.000000)" stroke="#7A7A7A">
            <path d="M47.0771645,27.5771645 C47.0771645,16.8076118 38.3467171,8.07716447 27.5771645,8.07716447 C16.8076118,8.07716447 8.07716447,16.8076118 8.07716447,27.5771645 C8.07716447,38.3467171 16.8076118,47.0771645 27.5771645,47.0771645 L27.5771645,47.0771645" id="Oval-1" transform="translate(27.577164, 27.577164) rotate(-315.000000) translate(-27.577164, -27.577164) "></path>
            <circle id="Oval-1" fill="#EBEBEB" cx="16" cy="32" r="5"></circle>
            <circle id="Oval-2" fill="#EBEBEB" cx="34" cy="26" r="8"></circle>
            <path d="M22.9845464,27.9454076 C22.9946367,28.1434134 23,28.3508638 23,28.5645776 C23,29.9452895 22.7761424,31.0645776 22.5,31.0645776 C22.2238576,31.0645776 22,29.9452895 22,28.5645776 C22,27.4226098 22.1531346,26.4594747 22.3623304,26.1605398 C22.3696417,26.0877992 22.3927568,26.0378316 22.4330127,26.0145898 C22.672159,25.8765186 23.4256695,26.7339218 24.1160254,27.9296533 C24.8063813,29.1253849 25.172159,30.2066456 24.9330127,30.3447168 C24.6938664,30.482788 23.9403559,29.6253849 23.25,28.4296533 C23.1551455,28.2653605 23.0664186,28.1032287 22.9845464,27.9454076 Z" id="Combined-Shape" fill="#D8D8D8"></path>
            <path d="M12.2948154,42.0019099 C12.2948154,42.0019099 9.64930755,41.8798396 9.62033619,43.5875219 C9.59136484,45.2952042 15.1978102,46.3450089 17.5851799,46.5533422 C19.9725497,46.7616755 24.5116122,46.887001 24.5116122,46.887001 L24.6525628,49.5071182 C24.6525628,49.5071182 11.4530185,57.5696182 8.95106536,54.3759333 C6.44911224,51.1822484 9.67469817,43.5074437 9.67469817,43.5074437" id="Path-3" fill="#F4BBD3"></path>
            <path d="M16,43 C16,43 18.0693359,43.5872396 22,45" id="Line" stroke-linecap="square"></path>
            <path d="M35.2948154,41.0019099 C35.2948154,41.0019099 32.6493075,40.8798396 32.6203362,42.5875219 C32.5913648,44.2952042 38.1978102,45.3450089 40.5851799,45.5533422 C42.9725497,45.7616755 47.5116122,45.887001 47.5116122,45.887001 L47.6525628,48.5071182 C47.6525628,48.5071182 34.4530185,56.5696182 31.9510654,53.3759333 C29.4491122,50.1822484 32.6746982,42.5074437 32.6746982,42.5074437" id="Path-3" fill="#F4BBD3" transform="translate(39.326281, 47.562121) scale(-1, 1) translate(-39.326281, -47.562121) "></path>
            <path d="M33,42 C33,42 35.0693359,42.5872396 39,44" id="Line" stroke-linecap="square" transform="translate(36.000000, 43.000000) scale(-1, 1) translate(-36.000000, -43.000000) "></path>
            <path d="M24.3012657,45.8498215 C23.3579579,46.7583059 24.8545067,48.7083512 25.7107102,49.3786292 C26.7395104,50.1840244 28.1565685,50.1802402 29.2320119,49.5190188 C30.3074553,48.8577974 31.7213954,46.4425359 30.5726187,45.5432173 C29.4238421,44.6438987 25.2445735,44.9413371 24.3012657,45.8498215 Z" id="Path-5" fill="#F4BBD3"></path>
            <path d="M25.2449185,51 C24.2640319,51.2005363 23.6532297,51.8062547 23.6532297,51.8062547 C23.6532297,51.8062547 19.5461598,55.0990284 19.5155996,59.168188 C19.4850393,63.2373476 20.920212,63.3131681 19.317538,66.0388358 C17.7148639,68.7645035 22.7089556,64.6914755 22.537586,64.2880024 C22.3662163,63.8845293 22.328306,69.9025839 21.4412842,71.3338882 C20.5542623,72.7651926 26.0284212,66.6713176 26.264393,64.1816217 C26.5003648,61.6919257 25.4502586,60.9159119 25.4079315,58.2049589 C25.3656043,55.4940058 26.0856734,52.7350552 26.0856734,52.7350552 L26.3703787,51.6478911" id="Path-8" fill="#F4BBD3"></path>
            <path d="M30,50.7479402 C30,50.7479402 32.5310877,55.9671722 31.6405843,60.276172 C30.7500809,64.5851718 30.9409793,64.5436181 30.9409793,64.5436181 C30.9409793,64.5436181 33.0490651,63.6486345 33.0490651,62.6285401 C33.0490651,61.6084456 33.0486783,67.2040719 31.8877744,70.3444311 C30.7268705,73.4847902 35.4875845,66.7300688 35.7524375,63.7318697 C36.0172905,60.7336706 35.8010379,60.3256874 35.6296682,59.1682651 C35.4582985,58.0108427 37.6799159,60.8587463 37.6487035,60.9410746 C37.617665,61.0229442 39.3209087,54.9690694 31.0800132,50.0820501 C31.0338307,50.054663 30.987336,50.0273125 30.9405269,50" id="Path-9" fill="#F4BBD3"></path>
        </g>
    </g>
</svg>