<?xml version="1.0" encoding="UTF-8" standalone="no"?>
<svg width="100px" height="100px" viewBox="0 0 100 100" version="1.1" xmlns="http://www.w3.org/2000/svg" xmlns:xlink="http://www.w3.org/1999/xlink">
    <!-- Generator: Sketch 39.1 (31720) - http://www.bohemiancoding.com/sketch -->
    <title>Dribbble</title>
    <desc>Created with Sketch.</desc>
    <defs>
        <path d="M87.9766361,0.295743465 C87.0138099,0.101784668 86.017606,7.10542736e-15 84.9976282,7.10542736e-15 L56.5990516,7.10542736e-15 C48.3105288,7.10542736e-15 34.8827947,7.10542736e-15 26.6007978,7.10542736e-15 L41.1680412,7.10542736e-15 C32.8927083,7.10542736e-15 19.4578219,7.10542736e-15 11.1752671,7.10542736e-15 L14.9968921,7.10542736e-15 C6.70599501,7.10542736e-15 0,6.71485623 0,14.9980512 L0,85.0019488 C0,86.0205676 0.10158814,87.0155108 0.295187564,87.977192 L87.9766361,0.295743465 Z M100,15.2097808 L100,85.0019488 C100,93.2851438 93.2834402,100 85.0019488,100 L15.2097808,100 L100,15.2097808 Z" id="path-1"></path>
        <mask id="mask-2" maskContentUnits="userSpaceOnUse" maskUnits="objectBoundingBox" x="0" y="0" width="100" height="100" fill="white">
            <use xlink:href="#path-1"></use>
        </mask>
    </defs>
    <g id="Page-1" stroke="none" stroke-width="1" fill="none" fill-rule="evenodd">
        <g id="Dribbble" transform="translate(-1.000000, 0.000000)">
            <g id="dribbble" transform="translate(1.000000, 0.000000)">
                <g id="Group-2">
                    <use id="Combined-Shape" stroke="#292F36" mask="url(#mask-2)" stroke-width="10" fill="#52D1DC" xlink:href="#path-1"></use>
                    <path d="M4.76190476,15.7555185 C4.76190476,9.6839133 9.69415089,4.76190476 15.7581799,4.76190476 L17.569832,4.76190476 C23.6429071,4.76190476 33.4924702,4.76190476 39.5682707,4.76190476 L31.5929127,4.76190476 C37.6692398,4.76190476 47.5209228,4.76190476 53.6014111,4.76190476 L84.7079526,4.76190476 C90.7865835,4.76190476 95.7142875,9.68414846 95.7142875,15.7555185 L95.7142875,84.7206738 C95.7142875,90.792279 90.7920438,95.7142875 84.7206738,95.7142875 L15.7555185,95.7142875 C9.6839133,95.7142875 4.76190476,90.7920438 4.76190476,84.7206738 L4.76190476,15.7555185 Z" id="Rectangle" fill="#F4BBD3"></path>
                </g>
            </g>
            <g id="Group-3" transform="translate(51.000000, 50.500000) scale(-1, 1) rotate(54.000000) translate(-51.000000, -50.500000) translate(19.000000, 11.000000)" stroke="#EEF0F2" stroke-width="4">
                <path d="M32,71 C49.673112,71 64,56.673112 64,39 C64,21.326888 49.673112,7 32,7 C14.326888,7 0,21.326888 0,39 C0,56.673112 14.326888,71 32,71 Z" id="Oval" fill="#F4BBD3"></path>
                <path d="M14.802689,62.3746329 C14.802689,62.3746329 29.1362126,70.5583986 42.686876,64.5205863 C60.6532476,51.9784335 59.2526898,37.1665151 59.2526898,37.1665151" id="Line" stroke-linecap="square" transform="translate(37.040429, 51.954241) scale(1, -1) rotate(55.000000) translate(-37.040429, -51.954241) "></path>
                <path d="M4.76324167,29.866156 C4.76324167,29.866156 16.842267,38.0499217 28.2615671,32.0121094 C37.2775396,24.5434034 40.5060756,16.2698241 41.6427557,10.7984077" id="Line" stroke-linecap="square" transform="translate(23.202999, 22.515948) scale(1, -1) rotate(-126.000000) translate(-23.202999, -22.515948) "></path>
                <path d="M21.5,9.5 C21.5,9.5 22.2260815,24.2035858 28.304515,39.3964663 C34.3829485,54.5893467 47.5,66.5 47.5,66.5" id="Line" stroke-linecap="square"></path>
            </g>
        </g>
    </g>
</svg>