<?xml version="1.0" encoding="UTF-8" standalone="no"?>
<svg width="91px" height="91px" viewBox="0 0 91 91" version="1.1" xmlns="http://www.w3.org/2000/svg" xmlns:xlink="http://www.w3.org/1999/xlink">
    <!-- Generator: Sketch 43.2 (39069) - http://www.bohemiancoding.com/sketch -->
    <title>GitHub</title>
    <desc>Created with Sketch.</desc>
    <defs>
        <path d="M0,12.0073894 C0,5.37589133 5.37180862,0 12.0067083,0 L11.7974941,0 C18.428616,0 29.1680039,0 35.8082215,0 L25.8291524,0 C32.458789,0 43.2065327,0 49.8369691,0 L78.9485851,0 C85.5780995,0 90.9523828,5.366688 90.9523828,12.0073894 L90.9523828,78.9449934 C90.9523828,85.5764914 85.5856948,90.9523828 78.9449934,90.9523828 L12.0073894,90.9523828 C5.37589133,90.9523828 0,85.5856948 0,78.9449934 L0,12.0073894 Z" id="path-1"></path>
    </defs>
    <g id="Page-1" stroke="none" stroke-width="1" fill="none" fill-rule="evenodd">
        <g id="GitHub">
            <g id="Rectangle">
                <g>
                    <use fill="#EEF0F2" fill-rule="evenodd" xlink:href="#path-1"></use>
                    <path stroke="#292F36" stroke-width="5" d="M12.0067083,2.5 C17.2920976,2.5 17.3748927,2.5 23.8138885,2.5 C30.3223162,2.5 30.3223162,2.5 35.8082215,2.5 L35.8082215,-2.5 L25.8291524,-2.5 L25.8291524,2.5 C31.3167261,2.5 31.3167261,2.5 37.8340265,2.5 C44.3500613,2.5 44.3500613,2.5 49.8369691,2.5 L78.9485851,2.5 C84.2006958,2.5 88.4523828,6.75070741 88.4523828,12.0073894 L88.4523828,78.9449934 C88.4523828,84.1992561 84.2015079,88.4523828 78.9449934,88.4523828 L12.0073894,88.4523828 C6.75312666,88.4523828 2.5,84.2015079 2.5,78.9449934 L2.5,12.0073894 C2.5,6.75514474 6.75397865,2.5 12.0067083,2.5 Z"></path>
                </g>
            </g>
            <path d="M36.6203385,81.6854245 C20.7599087,77.7674431 9,63.4434002 9,46.3726835 C9,26.2846051 25.2846051,10 45.3726835,10 C65.460762,10 81.7453671,26.2846051 81.7453671,46.3726835 C81.7453671,63.3368559 70.1317957,77.5885333 54.4215191,81.6108497 C54.6112768,81.3863877 54.7137976,81.1422939 54.7137976,80.8785755 L54.7137976,66.2197857 C54.7137976,64.1938004 53.769509,62.3906354 52.2946802,61.2176598 C68.8030468,58.969531 69.4750642,48.50766 69.4750642,45.563932 L69.4750642,41.098609 C69.4750642,37.7921238 68.0509633,34.8114211 65.764766,32.6976306 C65.7486784,32.5529977 65.7212168,32.4093575 65.6828054,32.2668084 C66.3695949,30.6029881 67.3058317,27.0756393 65.518522,22.6533908 C62.5348707,21.3757767 55.4816091,26.088827 55.4816091,26.088827 C52.400625,25.4609761 48.8786646,25.0173856 45.4880059,25.0173856 C42.1081344,25.0173856 38.5978402,25.4581408 35.4661003,26.2214458 C35.5213914,26.088827 28.4681298,21.3757767 25.4844786,22.6533908 C23.7111166,27.041129 24.6189591,30.5478803 25.3040723,32.2275161 C25.25996,32.3828696 25.2288435,32.5395335 25.2112738,32.6973799 C22.9242295,34.8123139 21.5009477,37.79432 21.5009477,41.098609 L21.5009477,45.563932 C21.5009477,48.5095982 22.1729567,58.9698275 38.6810227,61.2176877 C37.2054461,62.3916604 36.2622143,64.1961439 36.2622143,66.2197857 L36.2622143,66.6522353 C31.2259897,68.9697694 26.8794172,67.1740486 25.3833353,63.8212923 C23.8872534,60.4685359 20.3153236,59.732565 20.3153236,59.732565 C20.3153236,59.732565 15.6097037,58.788084 18.9223044,61.621225 C23.3457939,64.7500821 21.7344885,65.6683107 24.6871297,69.5949976 C27.639771,73.5216846 36.0343684,71.8454573 36.0343684,71.8454573 C36.0343684,71.8454573 36.1219108,71.7198793 36.2622143,71.506763 L36.2622143,80.8785755 C36.2622143,81.1718289 36.388559,81.4407752 36.6203385,81.6854245 Z" id="Combined-Shape" fill="#F4BBD3"></path>
        </g>
    </g>
</svg>