<?xml version="1.0" encoding="UTF-8" standalone="no"?>
<svg width="91px" height="91px" viewBox="0 0 91 91" version="1.1" xmlns="http://www.w3.org/2000/svg" xmlns:xlink="http://www.w3.org/1999/xlink">
    <!-- Generator: Sketch 42 (36781) - http://www.bohemiancoding.com/sketch -->
    <title>GitHub</title>
    <desc>Created with Sketch.</desc>
    <defs>
        <path d="M0,12.0073894 C0,5.37589133 5.37180862,0 12.0067083,0 L11.7974941,0 C18.428616,0 29.1680039,0 35.8082215,0 L25.8291524,0 C32.458789,0 43.2065327,0 49.8369691,0 L78.9485851,0 C85.5780995,0 90.9523828,5.366688 90.9523828,12.0073894 L90.9523828,78.9449934 C90.9523828,85.5764914 85.5856948,90.9523828 78.9449934,90.9523828 L12.0073894,90.9523828 C5.37589133,90.9523828 0,85.5856948 0,78.9449934 L0,12.0073894 Z" id="path-1"></path>
        <mask id="mask-2" maskContentUnits="userSpaceOnUse" maskUnits="objectBoundingBox" x="0" y="0" width="90.9523828" height="90.9523828" fill="white">
            <use xlink:href="#path-1"></use>
        </mask>
    </defs>
    <g id="Page-1" stroke="none" stroke-width="1" fill="none" fill-rule="evenodd">
        <g id="GitHub">
            <g id="Rectangle" stroke="#292F36" stroke-width="6" fill="#F4BBD3">
                <use mask="url(#mask-2)" xlink:href="#path-1"></use>
            </g>
            <path d="M36.6154448,83.8634943 C19.6093649,79.6625044 7,64.3037897 7,46 C7,24.4608948 24.4608948,7 46,7 C67.5391052,7 85,24.4608948 85,46 C85,64.1895493 72.5475429,79.4706714 55.7024622,83.7835328 C55.9059267,83.5428572 56.0158529,83.2811316 56.0158529,82.998364 L56.0158529,67.2807225 C56.0158529,65.1083937 55.0033553,63.1749802 53.4219949,61.9172769 C71.1228141,59.5067584 71.8433735,48.2891927 71.8433735,45.1328298 L71.8433735,40.344962 C71.8433735,36.7996386 70.3164051,33.6036302 67.8650685,31.3371538 C67.8478188,31.1820736 67.8183736,31.0280578 67.7771876,30.8752119 C68.5135861,29.0912085 69.5174503,25.3090679 67.6010374,20.5673861 C64.4018674,19.1974858 56.8391259,24.250975 56.8391259,24.250975 C53.5355924,23.5777723 49.7592294,23.1021399 46.1236525,23.1021399 C42.4996419,23.1021399 38.7357879,23.5747323 35.3778322,24.3931733 C35.4371172,24.250975 27.8743757,19.1974858 24.6752057,20.5673861 C22.7737481,25.2720648 23.747167,29.0321201 24.4817681,30.8330814 C24.4344695,30.9996566 24.4011053,31.1676368 24.3822664,31.336885 C21.9300216,33.6045875 20.4039315,36.8019935 20.4039315,40.344962 L20.4039315,45.1328298 C20.4039315,48.2912709 21.1244819,59.5070763 38.8249789,61.9173067 C37.2428166,63.1760793 36.2314521,65.1109065 36.2314521,67.2807225 L36.2314521,67.7444093 C30.8314447,70.2293463 26.1709053,68.3039149 24.5667565,64.7089781 C22.9626078,61.1140413 19.132666,60.3249088 19.132666,60.3249088 C19.132666,60.3249088 14.0871439,59.312205 17.6390246,62.3499929 C22.382037,65.7048574 20.6543417,66.6894126 23.8202618,70.8997369 C26.9861818,75.1100611 35.9871481,73.3127545 35.9871481,73.3127545 C35.9871481,73.3127545 36.081014,73.1781056 36.2314521,72.9495952 L36.2314521,82.998364 C36.2314521,83.3128001 36.3669231,83.6011732 36.6154448,83.8634943 Z" id="Combined-Shape" fill="#EEF0F2"></path>
        </g>
    </g>
</svg>