<?xml version="1.0" encoding="UTF-8" standalone="no"?>
<svg width="91px" height="91px" viewBox="0 0 91 91" version="1.1" xmlns="http://www.w3.org/2000/svg" xmlns:xlink="http://www.w3.org/1999/xlink">
    <!-- Generator: Sketch 43.2 (39069) - http://www.bohemiancoding.com/sketch -->
    <title>Gmail</title>
    <desc>Created with Sketch.</desc>
    <defs>
        <path d="M0,10.9936138 C0,4.92200854 4.93224613,0 10.9962751,0 L12.8079273,0 C18.8810023,0 28.7305655,0 34.8063659,0 L26.8310079,0 C32.907335,0 42.759018,0 48.8395064,0 L79.9460478,0 C86.0246788,0 90.9523828,4.9222437 90.9523828,10.9936138 L90.9523828,79.958769 C90.9523828,86.0303742 86.0301391,90.9523828 79.958769,90.9523828 L10.9936138,90.9523828 C4.92200854,90.9523828 0,86.0301391 0,79.958769 L0,10.9936138 Z" id="path-1"></path>
    </defs>
    <g id="Page-1" stroke="none" stroke-width="1" fill="none" fill-rule="evenodd">
        <g id="Gmail">
            <g id="Rectangle">
                <use fill="#EEF0F2" fill-rule="evenodd" xlink:href="#path-1"></use>
                <path stroke="#292F36" stroke-width="5" d="M2.5,10.9936138 C2.5,6.30629572 6.30938057,2.5 10.9962751,2.5 L12.8079273,2.5 C17.8367796,2.5 17.8367796,2.5 23.8104356,2.5 C29.7797806,2.5 29.7797806,2.5 34.8063659,2.5 L34.8063659,-2.5 L26.8310079,-2.5 L26.8310079,2.5 C31.8632062,2.5 31.8632062,2.5 37.8402846,2.5 C43.8107751,2.5 43.8107751,2.5 48.8395064,2.5 L79.9460478,2.5 C84.6445241,2.5 88.4523828,6.3035137 88.4523828,10.9936138 L88.4523828,79.958769 C88.4523828,84.6495729 84.6495167,88.4523828 79.958769,88.4523828 L10.9936138,88.4523828 C6.3028099,88.4523828 2.5,84.6495167 2.5,79.958769 L2.5,10.9936138 Z"></path>
            </g>
            <g id="Group-4" transform="translate(9.000000, 18.000000)" stroke="#F4BBD3">
                <rect id="Rectangle-3" stroke-width="4" x="2" y="2.36036911" width="69" height="48.2781026" rx="2"></rect>
                <path d="M68.764527,47.5381913 C68.764527,47.5381913 68.6455041,7.02692101 68.653439,4.51805171 C68.6613738,2.0091824 36.6180247,26.5864998 36.6180247,26.5864998 C36.6180247,26.5864998 4.46836428,1.8465705 4.2647029,4.48630367 C4.06104152,7.12603684 4.38835445,47.4142965 4.38835445,47.4142965" id="Line" stroke-width="8" stroke-linecap="square"></path>
                <polyline id="Line" stroke-width="4" stroke-linecap="square" points="3.07887564 49.5696354 30.5744041 23.310623 36.571622 29.6892752 42.2434855 22.8448276 70.6679908 50.3074616"></polyline>
            </g>
        </g>
    </g>
</svg>