<?xml version="1.0" encoding="UTF-8" standalone="no"?>
<svg width="100px" height="101px" viewBox="0 0 100 101" version="1.1" xmlns="http://www.w3.org/2000/svg" xmlns:xlink="http://www.w3.org/1999/xlink">
    <!-- Generator: Sketch 39.1 (31720) - http://www.bohemiancoding.com/sketch -->
    <title>Gmail</title>
    <desc>Created with Sketch.</desc>
    <defs>
        <path d="M87.9766361,0.295743465 C87.0138099,0.101784668 86.017606,7.10542736e-15 84.9976282,7.10542736e-15 L56.5990516,7.10542736e-15 C48.3105288,7.10542736e-15 34.8827947,7.10542736e-15 26.6007978,7.10542736e-15 L41.1680412,7.10542736e-15 C32.8927083,7.10542736e-15 19.4578219,7.10542736e-15 11.1752671,7.10542736e-15 L14.9968921,7.10542736e-15 C6.70599501,7.10542736e-15 0,6.71485623 0,14.9980512 L0,85.0019488 C0,86.0205676 0.10158814,87.0155108 0.295187564,87.977192 L87.9766361,0.295743465 Z M100,15.2097808 L100,85.0019488 C100,93.2851438 93.2834402,100 85.0019488,100 L15.2097808,100 L100,15.2097808 Z" id="path-1"></path>
        <mask id="mask-2" maskContentUnits="userSpaceOnUse" maskUnits="objectBoundingBox" x="0" y="0" width="100" height="100" fill="white">
            <use xlink:href="#path-1"></use>
        </mask>
        <rect id="path-3" x="0" y="0.360369111" width="76" height="52.2781026" rx="2"></rect>
        <mask id="mask-4" maskContentUnits="userSpaceOnUse" maskUnits="objectBoundingBox" x="0" y="0" width="76" height="52.2781026" fill="white">
            <use xlink:href="#path-3"></use>
        </mask>
    </defs>
    <g id="Page-1" stroke="none" stroke-width="1" fill="none" fill-rule="evenodd">
        <g id="Gmail">
            <g id="Dribbble" transform="translate(0.000000, 0.548819)">
                <g id="dribbble">
                    <g id="Group-2">
                        <use id="Combined-Shape" stroke="#292F36" mask="url(#mask-2)" stroke-width="10" fill="#52D1DC" xlink:href="#path-1"></use>
                        <path d="M4.76190476,15.7555185 C4.76190476,9.6839133 9.69415089,4.76190476 15.7581799,4.76190476 L17.569832,4.76190476 C23.6429071,4.76190476 33.4924702,4.76190476 39.5682707,4.76190476 L31.5929127,4.76190476 C37.6692398,4.76190476 47.5209228,4.76190476 53.6014111,4.76190476 L84.7079526,4.76190476 C90.7865835,4.76190476 95.7142875,9.68414846 95.7142875,15.7555185 L95.7142875,84.7206738 C95.7142875,90.792279 90.7920438,95.7142875 84.7206738,95.7142875 L15.7555185,95.7142875 C9.6839133,95.7142875 4.76190476,90.7920438 4.76190476,84.7206738 L4.76190476,15.7555185 Z" id="Rectangle" fill="#EEF0F2"></path>
                    </g>
                </g>
            </g>
            <g id="Group-4" transform="translate(12.000000, 22.548819)" stroke="#F4BBD3">
                <use id="Rectangle-3" mask="url(#mask-4)" stroke-width="4" xlink:href="#path-3"></use>
                <path d="M71.5904665,47.5381913 C71.5904665,47.5381913 71.4665522,7.02692101 71.4748132,4.51805171 C71.4830741,2.0091824 38.122875,26.5864998 38.122875,26.5864998 C38.122875,26.5864998 4.65199569,1.8465705 4.43996466,4.48630367 C4.22793363,7.12603684 4.56869778,47.4142965 4.56869778,47.4142965" id="Line" stroke-width="8" stroke-linecap="square"></path>
                <polyline id="Line" stroke-linecap="square" points="3.20540478 49.5696354 31.8308865 23.310623 38.0745654 29.6892752 43.9795191 22.8448276 73.5721548 50.3074616"></polyline>
            </g>
        </g>
    </g>
</svg>