<?xml version="1.0" encoding="UTF-8" standalone="no"?>
<svg width="92px" height="92px" viewBox="0 0 92 92" version="1.1" xmlns="http://www.w3.org/2000/svg" xmlns:xlink="http://www.w3.org/1999/xlink">
    <!-- Generator: Sketch 42 (36781) - http://www.bohemiancoding.com/sketch -->
    <title>Gmail</title>
    <desc>Created with Sketch.</desc>
    <defs>
        <path d="M0.761904762,11.3043374 C0.761904762,5.23273212 5.69415089,0.310723581 11.7581799,0.310723581 L13.569832,0.310723581 C19.6429071,0.310723581 29.4924702,0.310723581 35.5682707,0.310723581 L27.5929127,0.310723581 C33.6692398,0.310723581 43.5209228,0.310723581 49.6014111,0.310723581 L80.7079526,0.310723581 C86.7865835,0.310723581 91.7142875,5.23296728 91.7142875,11.3043374 L91.7142875,80.2694926 C91.7142875,86.3410978 86.7920438,91.2631064 80.7206738,91.2631064 L11.7555185,91.2631064 C5.6839133,91.2631064 0.761904762,86.3408627 0.761904762,80.2694926 L0.761904762,11.3043374 Z" id="path-1"></path>
        <mask id="mask-2" maskContentUnits="userSpaceOnUse" maskUnits="objectBoundingBox" x="0" y="0" width="90.9523828" height="90.9523828" fill="white">
            <use xlink:href="#path-1"></use>
        </mask>
        <rect id="path-3" x="0" y="0.360369111" width="76" height="52.2781026" rx="2"></rect>
        <mask id="mask-4" maskContentUnits="userSpaceOnUse" maskUnits="objectBoundingBox" x="0" y="0" width="76" height="52.2781026" fill="white">
            <use xlink:href="#path-3"></use>
        </mask>
    </defs>
    <g id="Page-1" stroke="none" stroke-width="1" fill="none" fill-rule="evenodd">
        <g id="Gmail">
            <use id="Rectangle" stroke="#292F36" mask="url(#mask-2)" stroke-width="6" fill="#F4BBD3" xlink:href="#path-1"></use>
            <g id="Group-4" transform="translate(8.000000, 17.548819)" stroke="#EEF0F2">
                <use id="Rectangle-3" mask="url(#mask-4)" stroke-width="4" xlink:href="#path-3"></use>
                <path d="M71.5904665,47.5381913 C71.5904665,47.5381913 71.4665522,7.02692101 71.4748132,4.51805171 C71.4830741,2.0091824 38.122875,26.5864998 38.122875,26.5864998 C38.122875,26.5864998 4.65199569,1.8465705 4.43996466,4.48630367 C4.22793363,7.12603684 4.56869778,47.4142965 4.56869778,47.4142965" id="Line" stroke-width="8" stroke-linecap="square"></path>
                <polyline id="Line" stroke-width="2" stroke-linecap="square" points="3.20540478 49.5696354 31.8308865 23.310623 38.0745654 29.6892752 43.9795191 22.8448276 73.5721548 50.3074616"></polyline>
            </g>
        </g>
    </g>
</svg>