<?xml version="1.0" encoding="UTF-8" standalone="no"?>
<svg width="267px" height="421px" viewBox="0 0 267 421" version="1.1" xmlns="http://www.w3.org/2000/svg" xmlns:xlink="http://www.w3.org/1999/xlink">
    <!-- Generator: Sketch 42 (36781) - http://www.bohemiancoding.com/sketch -->
    <title>Group 5</title>
    <desc>Created with Sketch.</desc>
    <defs></defs>
    <g id="Page-1" stroke="none" stroke-width="1" fill="none" fill-rule="evenodd">
        <g id="Skull-004" transform="translate(-113.000000, -53.000000)" stroke="#7A7A7A">
            <g id="Group-5" transform="translate(60.000000, 0.000000)">
                <g id="Group-6" transform="translate(53.571429, 277.901786)">
                    <path d="M28.7599243,0.0127894708 C28.7599243,0.0127894708 11.0444702,-0.804645658 10.8504656,10.6307268 C10.656461,22.0660993 48.1996216,29.0960414 64.1864728,30.4911307 C80.1733241,31.88622 110.568832,32.7254534 110.568832,32.7254534 L111.512697,50.270881 C111.512697,50.270881 23.1228916,104.260836 6.36874125,82.8745536 C-10.3854091,61.4882708 11.2144967,10.0944894 11.2144967,10.0944894" id="Path-3" fill="#F4BBD3"></path>
                    <path d="M53.5714286,6.69642857 C53.5714286,6.69642857 67.4285889,10.6288365 93.75,20.0892857" id="Line" stroke-linecap="square"></path>
                </g>
                <g id="Group-7" transform="translate(207.589286, 274.553571)">
                    <path d="M28.7599243,0.0127894708 C28.7599243,0.0127894708 11.0444702,-0.804645658 10.8504656,10.6307268 C10.656461,22.0660993 48.1996216,29.0960414 64.1864728,30.4911307 C80.1733241,31.88622 110.568832,32.7254534 110.568832,32.7254534 L111.512697,50.270881 C111.512697,50.270881 23.1228916,104.260836 6.36874125,82.8745536 C-10.3854091,61.4882708 11.2144967,10.0944894 11.2144967,10.0944894" id="Path-3" fill="#F4BBD3" transform="translate(55.756349, 43.942777) scale(-1, 1) translate(-55.756349, -43.942777) "></path>
                    <path d="M13.3928571,6.69642857 C13.3928571,6.69642857 27.2500174,10.6288365 53.5714286,20.0892857" id="Line" stroke-linecap="square" transform="translate(33.482143, 13.392857) scale(-1, 1) translate(-33.482143, -13.392857) "></path>
                </g>
                <g id="Group-8">
                    <path d="M315.248869,184.668512 C315.248869,112.550972 256.786052,54.0881549 184.668512,54.0881549 C112.550972,54.0881549 54.0881549,112.550972 54.0881549,184.668512 C54.0881549,256.786052 112.550972,315.248869 184.668512,315.248869 L184.668512,315.248869" id="Oval-1" transform="translate(184.668512, 184.668512) rotate(-315.000000) translate(-184.668512, -184.668512) "></path>
                    <circle id="Oval-1" fill="#EBEBEB" cx="107.142857" cy="214.285714" r="33.4821429"></circle>
                    <circle id="Oval-2" fill="#EBEBEB" cx="227.678571" cy="174.107143" r="53.5714286"></circle>
                    <path d="M149.747748,175.182186 C148.346884,177.183982 147.321429,183.633548 147.321429,191.280654 C147.321429,200.526492 148.820475,208.021725 150.669643,208.021725 C152.518811,208.021725 154.017857,200.526492 154.017857,191.280654 C154.017857,189.849535 153.981942,188.460358 153.914373,187.134426 C154.462624,188.191264 155.056778,189.276968 155.691964,190.377143 C160.314884,198.384274 165.360712,204.125813 166.962139,203.201229 C168.563565,202.276645 166.114161,195.036059 161.491242,187.028928 C156.868322,179.021797 151.822493,173.280259 150.221067,174.204842 C149.951496,174.360479 149.796708,174.695084 149.747748,175.182186 Z" id="Combined-Shape" fill="#D8D8D8"></path>
                    <path d="M162.73169,307.030055 C156.414897,313.113656 166.436429,326.171994 172.169934,330.660463 C179.059221,336.053735 188.54845,336.028394 195.75008,331.600572 C202.95171,327.17275 212.420058,310.999125 204.727357,304.976902 C197.034657,298.954679 169.048483,300.946454 162.73169,307.030055 Z" id="Path-5" fill="#F4BBD3"></path>
                </g>
                <path d="M162.354365,334.821429 C155.785928,336.164305 151.695734,340.220455 151.695734,340.220455 C151.695734,340.220455 124.193035,362.270279 123.98839,389.519116 C123.783745,416.767953 133.394277,417.275679 122.662085,435.527918 C111.929892,453.780157 145.372471,426.505416 144.224906,423.803587 C143.077341,421.101759 142.823478,461.401231 136.883599,470.985859 C130.943721,480.570486 167.601035,439.763287 169.181203,423.091216 C170.761372,406.419146 163.72941,401.222624 163.44597,383.068921 C163.162529,364.915217 167.98442,346.440102 167.98442,346.440102 L169.890929,339.159985" id="Path-8" fill="#F4BBD3" transform="translate(145.213321, 403.623277) rotate(10.000000) translate(-145.213321, -403.623277) "></path>
                <path d="M194.196429,339.829957 C194.196429,339.829957 211.145676,374.780171 205.182484,403.63508 C199.219291,432.48999 200.497629,432.211728 200.497629,432.211728 C200.497629,432.211728 214.614275,426.218535 214.614275,419.387545 C214.614275,412.556555 214.611685,450.027267 206.837775,471.056458 C199.063865,492.085649 230.943646,446.85314 232.717216,426.775913 C234.490785,406.698687 233.042664,403.966657 231.8951,396.216061 C230.747535,388.465465 245.624437,407.536248 245.415425,408.087553 C245.207578,408.635787 256.613228,368.096447 201.42866,335.370872 C201.119402,335.187476 200.808054,335.004325 200.4946,334.821429" id="Path-9" fill="#F4BBD3" transform="translate(220.226983, 405.663219) rotate(10.000000) translate(-220.226983, -405.663219) "></path>
            </g>
        </g>
    </g>
</svg>