<?xml version="1.0" encoding="UTF-8" standalone="no"?>
<svg width="92px" height="92px" viewBox="0 0 92 92" version="1.1" xmlns="http://www.w3.org/2000/svg" xmlns:xlink="http://www.w3.org/1999/xlink">
    <!-- Generator: Sketch 43.2 (39069) - http://www.bohemiancoding.com/sketch -->
    <title>Group 9</title>
    <desc>Created with Sketch.</desc>
    <defs>
        <path d="M0.761904762,12.7692941 C0.761904762,6.13779609 6.13371338,0.761904762 12.7686131,0.761904762 L12.5593989,0.761904762 C19.1905208,0.761904762 29.9299087,0.761904762 36.5701262,0.761904762 L26.5910571,0.761904762 C33.2206938,0.761904762 43.9684375,0.761904762 50.5988739,0.761904762 L79.7104898,0.761904762 C86.3400042,0.761904762 91.7142875,6.12859276 91.7142875,12.7692941 L91.7142875,79.7068982 C91.7142875,86.3383962 86.3475995,91.7142875 79.7068982,91.7142875 L12.7692941,91.7142875 C6.13779609,91.7142875 0.761904762,86.3475995 0.761904762,79.7068982 L0.761904762,12.7692941 Z" id="path-1"></path>
    </defs>
    <g id="Page-1" stroke="none" stroke-width="1" fill="none" fill-rule="evenodd">
        <g id="Group-9">
            <g id="Rectangle">
                <use fill="#52D1DC" fill-rule="evenodd" xlink:href="#path-1"></use>
                <path stroke="#292F36" stroke-width="3" d="M12.7686131,2.26190476 C18.0540024,2.26190476 18.1367975,2.26190476 24.5757932,2.26190476 C31.084221,2.26190476 31.084221,2.26190476 36.5701262,2.26190476 L36.5701262,-0.738095238 L26.5910571,-0.738095238 L26.5910571,2.26190476 C32.0786308,2.26190476 32.0786308,2.26190476 38.5959313,2.26190476 C45.111966,2.26190476 45.111966,2.26190476 50.5988739,2.26190476 L79.7104898,2.26190476 C85.5148338,2.26190476 90.2142875,6.96027583 90.2142875,12.7692941 L90.2142875,79.7068982 C90.2142875,85.5133271 85.515816,90.2142875 79.7068982,90.2142875 L12.7692941,90.2142875 C6.96286519,90.2142875 2.26190476,85.515816 2.26190476,79.7068982 L2.26190476,12.7692941 C2.26190476,6.9648261 6.9635373,2.26190476 12.7686131,2.26190476 Z"></path>
            </g>
            <rect id="Rectangle-2" fill="#292F36" x="13" y="19" width="67" height="11" rx="5.5"></rect>
            <rect id="Rectangle-2" fill="#292F36" x="13" y="41" width="67" height="11" rx="5.5"></rect>
            <rect id="Rectangle-2" fill="#292F36" x="13" y="63" width="67" height="11" rx="5.5"></rect>
        </g>
    </g>
</svg>