<?xml version="1.0" encoding="UTF-8" standalone="no"?>
<svg width="100px" height="100px" viewBox="0 0 100 100" version="1.1" xmlns="http://www.w3.org/2000/svg" xmlns:xlink="http://www.w3.org/1999/xlink">
    <!-- Generator: Sketch 39.1 (31720) - http://www.bohemiancoding.com/sketch -->
    <title>LinkedIn</title>
    <desc>Created with Sketch.</desc>
    <defs>
        <path d="M87.9766361,0.295743465 C87.0138099,0.101784668 86.017606,7.10542736e-15 84.9976282,7.10542736e-15 L56.5990516,7.10542736e-15 C48.3105288,7.10542736e-15 34.8827947,7.10542736e-15 26.6007978,7.10542736e-15 L41.1680412,7.10542736e-15 C32.8927083,7.10542736e-15 19.4578219,7.10542736e-15 11.1752671,7.10542736e-15 L14.9968921,7.10542736e-15 C6.70599501,7.10542736e-15 0,6.71485623 0,14.9980512 L0,85.0019488 C0,86.0205676 0.10158814,87.0155108 0.295187564,87.977192 L87.9766361,0.295743465 Z M100,15.2097808 L100,85.0019488 C100,93.2851438 93.2834402,100 85.0019488,100 L15.2097808,100 L100,15.2097808 Z" id="path-1"></path>
        <mask id="mask-2" maskContentUnits="userSpaceOnUse" maskUnits="objectBoundingBox" x="0" y="0" width="100" height="100" fill="white">
            <use xlink:href="#path-1"></use>
        </mask>
    </defs>
    <g id="Page-1" stroke="none" stroke-width="1" fill="none" fill-rule="evenodd">
        <g id="LinkedIn">
            <g id="Group-2" fill="#52D1DC">
                <use id="Combined-Shape" stroke="#292F36" mask="url(#mask-2)" stroke-width="10" xlink:href="#path-1"></use>
                <path d="M4.76190476,16.7692941 C4.76190476,10.1377961 10.1337134,4.76190476 16.7686131,4.76190476 L16.5593989,4.76190476 C23.1905208,4.76190476 33.9299087,4.76190476 40.5701262,4.76190476 L30.5910571,4.76190476 C37.2206938,4.76190476 47.9684375,4.76190476 54.5988739,4.76190476 L83.7104898,4.76190476 C90.3400042,4.76190476 95.7142875,10.1285928 95.7142875,16.7692941 L95.7142875,83.7068982 C95.7142875,90.3383962 90.3475995,95.7142875 83.7068982,95.7142875 L16.7692941,95.7142875 C10.1377961,95.7142875 4.76190476,90.3475995 4.76190476,83.7068982 L4.76190476,16.7692941 Z" id="Rectangle"></path>
            </g>
            <text id="in" font-family="Sniglet-Regular, Sniglet" font-size="72" font-weight="normal" letter-spacing="0.78840363" fill="#EEF0F2">
                <tspan x="22" y="70">in</tspan>
            </text>
        </g>
    </g>
</svg>