<?xml version="1.0" encoding="UTF-8" standalone="no"?>
<svg width="92px" height="92px" viewBox="0 0 92 92" version="1.1" xmlns="http://www.w3.org/2000/svg" xmlns:xlink="http://www.w3.org/1999/xlink">
    <!-- Generator: Sketch 42 (36781) - http://www.bohemiancoding.com/sketch -->
    <title>LinkedIn</title>
    <desc>Created with Sketch.</desc>
    <defs>
        <path d="M0.761904762,15.7692941 C0.761904762,9.13779609 6.13371338,3.76190476 12.7686131,3.76190476 L12.5593989,3.76190476 C19.1905208,3.76190476 29.9299087,3.76190476 36.5701262,3.76190476 L26.5910571,3.76190476 C33.2206938,3.76190476 43.9684375,3.76190476 50.5988739,3.76190476 L79.7104898,3.76190476 C86.3400042,3.76190476 91.7142875,9.12859276 91.7142875,15.7692941 L91.7142875,82.7068982 C91.7142875,89.3383962 86.3475995,94.7142875 79.7068982,94.7142875 L12.7692941,94.7142875 C6.13779609,94.7142875 0.761904762,89.3475995 0.761904762,82.7068982 L0.761904762,15.7692941 Z" id="path-1"></path>
        <mask id="mask-2" maskContentUnits="userSpaceOnUse" maskUnits="objectBoundingBox" x="0" y="0" width="90.9523828" height="90.9523828" fill="white">
            <use xlink:href="#path-1"></use>
        </mask>
    </defs>
    <g id="Page-1" stroke="none" stroke-width="1" fill="none" fill-rule="evenodd">
        <g id="LinkedIn" transform="translate(0.000000, -3.000000)">
            <use id="Rectangle" stroke="#292F36" mask="url(#mask-2)" stroke-width="6" fill="#52D1DC" xlink:href="#path-1"></use>
            <text id="in" font-family="Sniglet-Regular, Sniglet" font-size="72" font-weight="normal" letter-spacing="0.78840363" fill="#EEF0F2">
                <tspan x="18" y="69">in</tspan>
            </text>
        </g>
    </g>
</svg>