<?xml version="1.0" encoding="UTF-8" standalone="no"?>
<svg width="92px" height="92px" viewBox="0 0 92 92" version="1.1" xmlns="http://www.w3.org/2000/svg" xmlns:xlink="http://www.w3.org/1999/xlink">
    <!-- Generator: Sketch 43.2 (39069) - http://www.bohemiancoding.com/sketch -->
    <title>LinkedIn</title>
    <desc>Created with Sketch.</desc>
    <defs>
        <path d="M0.761904762,12.7692941 C0.761904762,6.13779609 6.13371338,0.761904762 12.7686131,0.761904762 L12.5593989,0.761904762 C19.1905208,0.761904762 29.9299087,0.761904762 36.5701262,0.761904762 L26.5910571,0.761904762 C33.2206938,0.761904762 43.9684375,0.761904762 50.5988739,0.761904762 L79.7104898,0.761904762 C86.3400042,0.761904762 91.7142875,6.12859276 91.7142875,12.7692941 L91.7142875,79.7068982 C91.7142875,86.3383962 86.3475995,91.7142875 79.7068982,91.7142875 L12.7692941,91.7142875 C6.13779609,91.7142875 0.761904762,86.3475995 0.761904762,79.7068982 L0.761904762,12.7692941 Z" id="path-1"></path>
    </defs>
    <g id="Page-1" stroke="none" stroke-width="1" fill="none" fill-rule="evenodd">
        <g id="LinkedIn">
            <g id="Rectangle">
                <use fill="#EEF0F2" fill-rule="evenodd" xlink:href="#path-1"></use>
                <path stroke="#292F36" stroke-width="5" d="M12.7686131,3.26190476 C18.0540024,3.26190476 18.1367975,3.26190476 24.5757932,3.26190476 C31.084221,3.26190476 31.084221,3.26190476 36.5701262,3.26190476 L36.5701262,-1.73809524 L26.5910571,-1.73809524 L26.5910571,3.26190476 C32.0786308,3.26190476 32.0786308,3.26190476 38.5959313,3.26190476 C45.111966,3.26190476 45.111966,3.26190476 50.5988739,3.26190476 L79.7104898,3.26190476 C84.9626006,3.26190476 89.2142875,7.51261217 89.2142875,12.7692941 L89.2142875,79.7068982 C89.2142875,84.9611609 84.9634126,89.2142875 79.7068982,89.2142875 L12.7692941,89.2142875 C7.51503142,89.2142875 3.26190476,84.9634126 3.26190476,79.7068982 L3.26190476,12.7692941 C3.26190476,7.5170495 7.51588341,3.26190476 12.7686131,3.26190476 Z"></path>
            </g>
            <path d="M21.44,66.04 C21.3333328,64.0666568 21.2400004,61.813346 21.16,59.28 C21.0799996,56.746654 21.04,53.9600152 21.04,50.92 C21.04,47.1333144 21.0666664,43.8933468 21.12,41.2 C21.1733336,38.5066532 21.3199988,36.293342 21.56,34.56 C21.8000012,32.826658 22.186664,31.5466708 22.72,30.72 C23.253336,29.8933292 23.9999952,29.48 24.96,29.48 C25.8666712,29.48 26.6666632,29.7999968 27.36,30.44 C28.0533368,31.0800032 28.4533328,32.466656 28.56,34.6 C28.8800016,40.200028 29.04,45.6133072 29.04,50.84 C29.04,53.50668 28.9866672,55.9999884 28.88,58.32 C28.7733328,60.6400116 28.6666672,63.1866528 28.56,65.96 C28.5066664,67.2400064 28.3866676,68.2266632 28.2,68.92 C28.0133324,69.6133368 27.7600016,70.1466648 27.44,70.52 C27.1199984,70.8933352 26.760002,71.1199996 26.36,71.2 C25.959998,71.2800004 25.493336,71.32 24.96,71.32 C23.9999952,71.32 23.2000032,70.98667 22.56,70.32 C21.9199968,69.65333 21.5466672,68.2266776 21.44,66.04 Z M25.04,15 C26.2666728,15 27.3999948,15.4799952 28.44,16.44 C29.4800052,17.4000048 30,18.54666 30,19.88 C30,21.1600064 29.466672,22.266662 28.4,23.2 C27.333328,24.133338 26.13334,24.6 24.8,24.6 C23.6799944,24.6 22.6266716,24.133338 21.64,23.2 C20.6533284,22.266662 20.16,21.1066736 20.16,19.72 C20.16,18.4399936 20.6533284,17.333338 21.64,16.4 C22.6266716,15.466662 23.7599936,15 25.04,15 Z M58.5484036,36.92 C56.5750604,36.92 54.8017448,37.2399968 53.2284036,37.88 C51.6550624,38.5200032 49.8817468,39.4799936 47.9084036,40.76 L47.9084036,45.68 C47.9084036,47.8400108 47.8817372,50.186654 47.8284036,52.72 C47.77507,55.253346 47.7217372,57.7466544 47.6684036,60.2 C47.61507,62.6533456 47.5084044,64.7066584 47.3484036,66.36 C47.2417364,67.426672 47.1217376,68.2666636 46.9884036,68.88 C46.8550696,69.4933364 46.6684048,69.9599984 46.4284036,70.28 C46.1884024,70.6000016 45.8684056,70.7999996 45.4684036,70.88 C45.0684016,70.9600004 44.5484068,71 43.9084036,71 C43.2684004,71 42.7484056,70.9600004 42.3484036,70.88 C41.9484016,70.7999996 41.6150716,70.6133348 41.3484036,70.32 C41.0817356,70.0266652 40.8684044,69.5866696 40.7084036,69 C40.5484028,68.4133304 40.4150708,67.6133384 40.3084036,66.6 C40.2017364,65.6399952 40.108404,64.360008 40.0284036,62.76 C39.9484032,61.159992 39.8817372,59.4133428 39.8284036,57.52 C39.77507,55.6266572 39.7350704,53.7066764 39.7084036,51.76 C39.6817368,49.8133236 39.6684036,48.0133416 39.6684036,46.36 C39.6684036,43.6399864 39.7084032,41.4266752 39.7884036,39.72 C39.868404,38.0133248 40.0150692,36.49334 40.2284036,35.16 C40.5484052,32.9199888 40.9750676,31.5066696 41.5084036,30.92 C42.0417396,30.3333304 42.7617324,30.04 43.6684036,30.04 C45.0017436,30.04 46.0017336,30.4133296 46.6684036,31.16 C47.3350736,31.9066704 47.7484028,33.1333248 47.9084036,34.84 C49.8817468,33.1333248 52.0017256,31.7733384 54.2684036,30.76 C56.5350816,29.7466616 58.8683916,29.24 61.2684036,29.24 C63.5617484,29.24 65.6550608,29.773328 67.5484036,30.84 C69.4417464,31.906672 71.0017308,33.639988 72.2284036,36.04 C72.975074,37.4800072 73.5350684,39.066658 73.9084036,40.8 C74.2817388,42.533342 74.5484028,44.3599904 74.7084036,46.28 C74.7617372,47.1333376 74.81507,47.9733292 74.8684036,48.8 C74.9217372,49.6266708 74.9617368,50.506662 74.9884036,51.44 C75.0150704,52.373338 75.0284036,53.4266608 75.0284036,54.6 L75.0284036,58.76 C75.0284036,60.4666752 75.0017372,62.0666592 74.9484036,63.56 C74.89507,65.0533408 74.7484048,66.3466612 74.5084036,67.44 C74.2684024,68.5333388 73.8550732,69.3866636 73.2684036,70 C72.681734,70.6133364 71.881742,70.92 70.8684036,70.92 C68.415058,70.92 67.1350708,69.7466784 67.0284036,67.4 L67.0284036,65.36 C67.0284036,64.159994 67.0150704,62.760008 66.9884036,61.16 C66.9617368,59.559992 66.9350704,57.9333416 66.9084036,56.28 C66.8817368,54.6266584 66.8417372,53.266672 66.7884036,52.2 C66.73507,51.3466624 66.668404,50.4266716 66.5884036,49.44 C66.5084032,48.4533284 66.4017376,47.4533384 66.2684036,46.44 C66.1350696,45.4266616 65.961738,44.453338 65.7484036,43.52 C65.5350692,42.586662 65.2684052,41.7466704 64.9484036,41 C64.2017332,39.2399912 63.2684092,38.1200024 62.1484036,37.64 C61.028398,37.1599976 59.82841,36.92 58.5484036,36.92 Z" id="in" fill="#52D1DC"></path>
        </g>
    </g>
</svg>