<?xml version="1.0" encoding="UTF-8" standalone="no"?>
<svg width="856px" height="647px" viewBox="0 0 856 647" version="1.1" xmlns="http://www.w3.org/2000/svg" xmlns:xlink="http://www.w3.org/1999/xlink">
    <!-- Generator: Sketch 39.1 (31720) - http://www.bohemiancoding.com/sketch -->
    <title>Group 11</title>
    <desc>Created with Sketch.</desc>
    <defs>
        <path d="M806.154704,7.23429135 C795.718951,2.5845105 784.160098,0 771.997522,0 L84.0024779,0 C37.6082533,0 0,37.6059949 0,83.9953405 L0,562.623365 C0,572.097066 1.56842989,581.204331 4.45980328,589.699737 L806.154709,7.23429355 Z M850.390696,53.752761 C854.013603,63.1363353 856,73.3337939 856,83.9953405 L856,562.623365 C856,609.01271 818.391747,646.618705 771.997522,646.618705 L84.0024779,646.618705 C70.5277457,646.618705 57.7940288,643.446455 46.5075888,637.808031 L850.390696,53.752761 Z" id="path-1"></path>
        <mask id="mask-2" maskContentUnits="userSpaceOnUse" maskUnits="objectBoundingBox" x="0" y="0" width="856" height="646.618705" fill="white">
            <use xlink:href="#path-1"></use>
        </mask>
        <radialGradient cx="50%" cy="50%" fx="50%" fy="50%" r="50%" id="radialGradient-3">
            <stop stop-color="#FFFFFF" offset="0%"></stop>
            <stop stop-color="#D8D8D8" offset="100%"></stop>
        </radialGradient>
        <radialGradient cx="50%" cy="81.288407%" fx="50%" fy="81.288407%" r="81.3844481%" id="radialGradient-4">
            <stop stop-color="#6C6C6C" offset="0%"></stop>
            <stop stop-color="#F1F1F1" offset="100%"></stop>
        </radialGradient>
    </defs>
    <g id="Page-1" stroke="none" stroke-width="1" fill="none" fill-rule="evenodd">
        <g id="Desktop-HD-Copy-2" transform="translate(-13.000000, -63.000000)">
            <g id="Group-11" transform="translate(13.000000, 63.000000)">
                <g id="Group-10" fill="#C3B7E9">
                    <use id="Combined-Shape" stroke="#292F36" mask="url(#mask-2)" stroke-width="40" xlink:href="#path-1"></use>
                    <rect id="Rectangle" x="12.1190012" y="11.2901679" width="832.352253" height="624.932488" rx="75"></rect>
                </g>
                <g id="Sky" transform="translate(24.000000, 57.000000)" fill="#E7B6E1">
                    <ellipse id="Oval-9" cx="240.513601" cy="56.5521732" rx="170.301556" ry="56.1179627"></ellipse>
                    <ellipse id="Oval-10" cx="278.60737" cy="129.879644" rx="278.60737" ry="66.5933157"></ellipse>
                    <ellipse id="Oval-11" cx="386.913184" cy="212.934229" rx="342.096985" ry="68.8380342"></ellipse>
                    <ellipse id="Oval-12" cx="259.933953" cy="285.513461" rx="243.501347" ry="47.1390887"></ellipse>
                    <ellipse id="Oval-13" cx="534.80664" cy="342.379663" rx="274.872686" ry="80.0616268"></ellipse>
                </g>
                <g id="Table" transform="translate(177.233776, 386.000000)">
                    <g id="Group" transform="translate(383.000000, 26.000000)" fill="#E1E1E1">
                        <path d="M41.792942,170.100586 C41.792942,169.229329 41.792942,169.385905 41.792942,168.514648 L41.792942,33.9615881 C41.792942,33.9615881 51.2316427,9.40051124 58.8025978,4.5 C55.33024,2.30153241 55.4025496,2.47866116 51.0083691,0 C51.4433515,6.1404202 46.4714612,14.2169249 41.792942,20.3605155 L41.792942,1.74877517 L26.792942,1.74877517 L26.792942,25.2196571 C18.955673,19.4596576 8.56424286,11.1000655 5.90453126,5.50873511 C3.06202169,8.47879117 3.26498355,8.45489937 0,12.3011213 C9.21985712,14.1011554 21.1060549,27.3317267 26.792942,34.2643786 C26.792942,34.2643786 26.7953491,125.420442 26.7953491,170.301819" id="Combined-Shape"></path>
                        <path d="M27.0500488,170 C27.0500488,172.366935 30.2959844,174.285714 34.3000488,174.285714 C38.3041133,174.285714 41.5500488,172.366935 41.5500488,170" id="Oval-3"></path>
                    </g>
                    <g id="Group" transform="translate(37.500000, 113.500000) scale(-1, 1) translate(-37.500000, -113.500000) translate(8.000000, 26.000000)" fill="#E1E1E1">
                        <path d="M41.792942,170.100586 C41.792942,169.229329 41.792942,169.385905 41.792942,168.514648 L41.792942,33.9615881 C41.792942,33.9615881 51.2316427,9.40051124 58.8025978,4.5 C55.33024,2.30153241 55.4025496,2.47866116 51.0083691,0 C51.4433515,6.1404202 46.4714612,14.2169249 41.792942,20.3605155 L41.792942,1.74877517 L26.792942,1.74877517 L26.792942,25.2196571 C18.955673,19.4596576 8.56424286,11.1000655 5.90453126,5.50873511 C3.06202169,8.47879117 3.26498355,8.45489937 1.42108547e-14,12.3011213 C9.21985712,14.1011554 21.1060549,27.3317267 26.792942,34.2643786 C26.792942,34.2643786 26.7953491,125.420442 26.7953491,170.301819" id="Combined-Shape"></path>
                        <path d="M27.0500488,170 C27.0500488,172.366935 30.2959844,174.285714 34.3000488,174.285714 C38.3041133,174.285714 41.5500488,172.366935 41.5500488,170" id="Oval-3"></path>
                    </g>
                    <g id="Group-3" transform="translate(187.000000, 38.000000)" fill="#E1E1E1">
                        <path d="M30.088728,180.921661 L30.0887284,32.024613 C26.944318,28.6299267 8.97168721,9.54167232 0,6.89439999 C2.48882328,3.62226729 2.49697585,3.82646786 5.78508849,0 C8.79771446,8.25597573 22.0567971,17.2518719 30.0887284,22.088464 L30.0887284,1.71992107 L45.0887284,1.71992107 L45.0887284,21.550769 C53.0732895,16.0745921 66.3404275,6.3242552 69.4852828,0 C72.2755248,3.01921234 72.0730108,2.991782 75.2703713,6.89439999 C63.7367984,8.93786805 47.748246,28.6777499 45.0887284,32.0510982 L45.0887284,180.921661" id="Combined-Shape"></path>
                        <path d="M30.5899658,180.75 C30.5899658,183.116935 33.7239726,185.035714 37.5899658,185.035714 L37.5899658,185.035714 C41.4559591,185.035714 44.5899658,183.116935 44.5899658,180.75" id="Oval-3" transform="translate(37.589966, 182.892857) scale(-1, 1) translate(-37.589966, -182.892857) "></path>
                    </g>
                    <path d="M447,32 L447,14 L3,14 L3,32 C3,39.7319865 102.392786,46 225,46 C347.607214,46 447,39.7319865 447,32 Z" id="Combined-Shape" fill="#E1E1E1"></path>
                    <ellipse id="Oval-1" fill="#F1F1F1" cx="225" cy="14" rx="225" ry="14"></ellipse>
                </g>
                <g id="Teapot" transform="translate(320.233776, 283.000000)">
                    <path d="M107.726804,117.030532 C107.726804,117.030532 95.9951363,112.007963 95.9951345,105.298862 C95.9951328,98.5897624 74.7949572,97.8864098 74.7949572,105.298862 C74.7949572,112.711315 64.5302577,115.563562 64.5302577,115.563562 L63,117.030532" id="Path-12" fill="#A5BADC"></path>
                    <path d="M34.333865,59.3293612 C32.8983256,59.6911647 31.2885228,59.3699223 29.8677473,58.2532089 C26.7694552,54.9360036 24.5328043,47.3956591 24.5328043,47.3956591 C24.5328043,47.3956591 20.6955587,32.5775596 8.54188405,30.0011032 C7.13901652,29.8991454 7.18470987,36.8896933 1.15399467,40.5119517 C-0.0702435681,42.1482723 5.81971323,40.662371 8.17582142,41.5096806 C9.59809246,42.0211613 13.2006327,43.4612087 16.0867259,55.9788142 C16.4046268,57.2186869 19.2533806,77.2538431 26.5249462,83.5941863 C29.194723,86.3046948 33.9010277,87.5225863 37.3129192,88.0656653 C43.7190102,99.9362994 56.2709349,108 70.7069491,108 L98.5808779,108 C119.519973,108 136.501198,91.0242996 136.501198,70.0837118 C136.501198,49.1385199 119.523693,32.1674237 98.5808779,32.1674237 L70.7069491,32.1674237 C53.5031651,32.1674237 38.9711175,43.6267702 34.333865,59.3293612 Z" id="Combined-Shape" fill="#B4C9EB"></path>
                    <path d="M150.277186,83.8451366 C150.441061,83.3796624 150.530677,82.8755473 150.530677,82.3491452 C150.530677,79.9950496 148.738412,78.0866781 146.527542,78.0866781 C144.316671,78.0866781 142.524406,79.9950496 142.524406,82.3491452 C142.524406,84.1833975 143.612514,85.7470447 145.138925,86.3481846 C145.966456,86.7507732 148.247538,86.9174638 152.342412,86.2561346 C166.50238,83.4105791 166.983293,65.6226737 166.999706,62.9896662 C167.016118,60.3566587 166.400568,41.3513056 151.195392,39.7620956 C135.714714,38.6819863 134.282093,60.9281437 135.224609,63.0878581 C135.838545,65.29082 137.754259,66.8977022 140.022446,66.8977022 C142.786035,66.8977022 145.026366,64.5122378 145.026366,61.5696184 C145.026366,58.626999 142.786035,56.2415346 140.022446,56.2415346 C139.097908,56.2415346 138.231931,56.5085131 137.488808,56.9740152 C137.614304,55.4333153 137.787762,54.5043947 138.161711,53.1676289 C141.479198,41.3085377 150.030516,42.2053772 151.195393,42.3887902 C155.438545,42.9834206 160.824682,46.9011549 161.225829,62.9896655 C161.541589,75.6536183 157.011641,82.3152919 150.277186,83.8451366 Z" id="Combined-Shape" fill="#B4C9EB"></path>
                    <g id="Group-9" transform="translate(129.000000, 86.000000)" fill="#B4C9EB">
                        <path d="M4.31763304,8.45379034 C4.32457265,8.45375375 4.33151749,8.45373543 4.3384675,8.45373543 C6.10835437,8.45373543 7.54313117,9.64196566 7.54313117,11.1077219 C7.54313117,12.5734782 6.10835437,13.7617084 4.3384675,13.7617084 C3.03468478,13.7617084 1.91274938,13.1169159 1.41224362,12.1913769 C0.5707559,11.165997 -0.429711234,9.28526071 0.195714387,7.00208632 C2.40906074,-1.07794036 13.6007143,-0.0972730405 15.5416626,0.198084571 C17.4826109,0.493442182 18.5774134,0.650409749 20.9544003,2.57036489 C21.356724,2.80957381 22.7049389,4.48407643 18.9861595,3.33464195 C7.88402901,-2.47432334 0.33903771,7.46370698 4.31763304,8.45379034 Z" id="Combined-Shape"></path>
                    </g>
                    <path d="M85.6099854,125.54507 C100.306274,125.54507 112.219971,123.64972 112.219971,121.311687 L107.234392,118 L64.9174217,118 L59,121.311687 C59,123.64972 70.9136962,125.54507 85.6099854,125.54507 Z" id="Oval-3" fill="#B4C9EB"></path>
                    <path d="M63,116.849976 C63,118.799216 72.9840497,120.379387 85.2999992,120.379387 C97.6159487,120.379387 107.599998,118.799216 107.599998,116.849976" id="Oval-3" fill="#A5BADC"></path>
                    <ellipse id="Oval-6" fill="#A5BADC" cx="85.5" cy="33" rx="26.5" ry="4"></ellipse>
                    <path d="M104.599998,30 L105,30 C105,22.8187196 99.1807247,17 92.0022848,17 L79.9977152,17 C72.812747,17 67,22.8202983 67,30 L67.5,30 C67.5,31.6568542 75.8051175,33 86.0499992,33 C96.2948809,33 104.599998,31.6568542 104.599998,30 Z" id="Combined-Shape" fill="#B4C9EB"></path>
                    <path d="M92,13.2173913 C92,16.4110379 89.3137085,19 86,19 C82.6862915,19 80,16.4110379 80,13.2173913 C80.0000015,5.91762429 82.6862924,0 86,0 C89.3137085,0 92,5.91762765 92,13.2173913 Z" id="Combined-Shape" fill="#A5BADC"></path>
                    <g id="Flowers" transform="translate(43.000000, 45.000000)">
                        <g id="Group-5" transform="translate(74.021114, 27.939908) rotate(123.000000) translate(-74.021114, -27.939908) translate(69.021114, 21.439908)">
                            <path d="M4.15457681,1.31688988 C3.08694773,5.10911262 1.71112057,5.41131204 0.349290303,8.00526811 C-0.740067272,10.5237743 1.0665973,12.0198414 1.0665973,12.0198414 C1.0665973,12.0198414 2.53960281,13.4916471 6.24611154,12.7580767 C8.70209787,12.0198414 9.03415757,9.64450332 9.02709248,9.02077546 C9.02709234,6.18913898 4.16617423,-0.531632088 4.15457681,1.31688988 Z" id="Path-23" fill="#75947F"></path>
                            <path d="M4.34488093,1.00000026 C4.26828452,0.764326188 4.15594374,1.09901367 4.15457681,1.31688988 C3.08694773,5.10911262 1.71112057,5.41131204 0.349290303,8.00526811 C-0.740067272,10.5237743 1.0665973,12.0198414 1.0665973,12.0198414 C1.0665973,12.0198414 1.90593234,12.8584928 3.91171284,12.9541412 C4.56309361,12.9852032 6.45217991,7.48379907 4.34488093,1.00000026 Z" id="Path-23" fill="#BAD1C1"></path>
                        </g>
                        <g id="Group-2" transform="translate(62.989817, 17.989817) rotate(-193.000000) translate(-62.989817, -17.989817) translate(47.989817, 2.989817)">
                            <path d="M15.2817095,17.3183213 C20.0640319,17.3183213 23.9408702,13.441483 23.9408702,8.65916067 C23.9408702,3.87683828 20.0640319,4.76063633e-13 15.2817095,4.76063633e-13 C10.4993871,4.76063633e-13 6.62254886,3.87683828 6.62254886,8.65916067 C6.62254886,13.441483 10.4993871,17.3183213 15.2817095,17.3183213 Z" id="Oval-22" fill="#F09BB8"></path>
                            <circle id="Oval-22" fill="#F09BB8" cx="21.0753716" cy="12.4019689" r="8.65916067"></circle>
                            <ellipse id="Oval-22" fill="#F09BB8" cx="19.9360084" cy="20.9130124" rx="8.65916067" ry="8.65916067"></ellipse>
                            <ellipse id="Oval-22" fill="#F09BB8" cx="10.6445011" cy="21.0753716" rx="8.65916067" ry="8.65916067"></ellipse>
                            <ellipse id="Oval-22" fill="#F09BB8" cx="8.65916067" cy="12.8092913" rx="8.65916067" ry="8.65916067"></ellipse>
                            <ellipse id="Oval-28" fill="#FBA4C2" cx="12.3989556" cy="10.6674424" rx="7.10848289" ry="7.10848289"></ellipse>
                            <ellipse id="Oval-28" fill="#FBA4C2" cx="20.7026701" cy="15.8258105" rx="7.10848289" ry="7.10848289"></ellipse>
                            <ellipse id="Oval-28" fill="#FBA4C2" cx="9.88267842" cy="19.4744123" rx="7.10848289" ry="7.10848289"></ellipse>
                            <ellipse id="Oval-54" fill="#FFBAD2" cx="13.8458149" cy="15.1338343" rx="4.27767112" ry="4.9067404"></ellipse>
                            <path d="M23.0601559,15.1813641 C23.1623107,14.5377112 23.2157922,13.8731539 23.2157922,13.1935023 C23.2157922,7.39921085 19.3286462,2.70200955 14.5336086,2.70200955 C9.7385711,2.70200955 5.85142513,7.39921085 5.85142513,13.1935023 C5.85142513,13.8731539 5.90490654,14.5377112 6.00706136,15.1813641 C5.90490654,15.825017 5.85142513,16.4895743 5.85142513,17.1692259 C5.85142513,22.9635173 9.7385711,27.6607186 14.5336086,27.6607186 C19.3286462,27.6607186 23.2157922,22.9635173 23.2157922,17.1692259 C23.2157922,16.4895743 23.1623107,15.825017 23.0601559,15.1813641 Z M23.0601559,15.1813641 C22.2914017,20.0251001 18.7662038,23.6849951 14.5336086,23.6849951 C10.3010135,23.6849951 6.77581562,20.0251001 6.00706136,15.1813641 C6.77581562,10.337628 10.3010135,6.67773312 14.5336086,6.67773312 C18.7662038,6.67773312 22.2914017,10.337628 23.0601559,15.1813641 Z" id="Combined-Shape" fill="#FFABC8"></path>
                            <path d="M23.0601559,15.1261457 C23.1623107,14.6106538 23.2157922,14.0784199 23.2157922,13.5340971 C23.2157922,8.89353626 19.3286462,5.1316184 14.5336086,5.1316184 C9.7385711,5.1316184 5.85142513,8.89353626 5.85142513,13.5340971 C5.85142513,14.0784199 5.90490654,14.6106538 6.00706136,15.1261457 C5.90490654,15.6416377 5.85142513,16.1738716 5.85142513,16.7181943 C5.85142513,21.3587552 9.7385711,25.120673 14.5336086,25.120673 C19.3286462,25.120673 23.2157922,21.3587552 23.2157922,16.7181943 C23.2157922,16.1738716 23.1623107,15.6416377 23.0601559,15.1261457 Z M23.0601559,15.1261457 C22.2914017,19.005421 18.7662038,21.9365758 14.5336086,21.9365758 C10.3010135,21.9365758 6.77581562,19.005421 6.00706136,15.1261457 C6.77581562,11.2468704 10.3010135,8.3157156 14.5336086,8.3157156 C18.7662038,8.3157156 22.2914017,11.2468704 23.0601559,15.1261457 Z" id="Combined-Shape" fill="#FFB1CD" transform="translate(14.533609, 15.126146) rotate(-90.000000) translate(-14.533609, -15.126146) "></path>
                            <path d="M21.9681815,15.0709273 C22.0546202,14.5241071 22.0998737,13.9595275 22.0998737,13.3821244 C22.0998737,8.45954051 18.8107502,4.4689978 14.7534108,4.4689978 C10.6960713,4.4689978 7.40694779,8.45954051 7.40694779,13.3821244 C7.40694779,13.9595275 7.45220129,14.5241071 7.53863998,15.0709273 C7.45220129,15.6177475 7.40694779,16.1823271 7.40694779,16.7597303 C7.40694779,21.6823142 10.6960713,25.6728569 14.7534108,25.6728569 C18.8107502,25.6728569 22.0998737,21.6823142 22.0998737,16.7597303 C22.0998737,16.1823271 22.0546202,15.6177475 21.9681815,15.0709273 Z M21.9681815,15.0709273 C21.3176972,19.1859597 18.3348375,22.295251 14.7534108,22.295251 C11.1719841,22.295251 8.18912435,19.1859597 7.53863998,15.0709273 C8.18912435,10.9558949 11.1719841,7.84660367 14.7534108,7.84660367 C18.3348375,7.84660367 21.3176972,10.9558949 21.9681815,15.0709273 Z" id="Combined-Shape" fill="#FFB7D0" transform="translate(14.753411, 15.070927) rotate(-22.000000) translate(-14.753411, -15.070927) "></path>
                            <path d="M21.9506935,15.027432 C22.0371322,14.589492 22.0823857,14.1373286 22.0823857,13.6748952 C22.0823857,9.73247179 18.7932622,6.53650617 14.7359228,6.53650617 C10.6785833,6.53650617 7.38945979,9.73247179 7.38945979,13.6748952 C7.38945979,14.1373286 7.43471329,14.589492 7.52115198,15.027432 C7.43471329,15.4653721 7.38945979,15.9175354 7.38945979,16.3799689 C7.38945979,20.3223923 10.6785833,23.5183579 14.7359228,23.5183579 C18.7932622,23.5183579 22.0823857,20.3223923 22.0823857,16.3799689 C22.0823857,15.9175354 22.0371322,15.4653721 21.9506935,15.027432 Z M21.9506935,15.027432 C21.3002092,18.3230996 18.3173495,20.8132842 14.7359228,20.8132842 C11.1544961,20.8132842 8.17163636,18.3230996 7.52115198,15.027432 C8.17163636,11.7317645 11.1544961,9.24157989 14.7359228,9.24157989 C18.3173495,9.24157989 21.3002092,11.7317645 21.9506935,15.027432 Z" id="Combined-Shape" fill="#FFB1CD" transform="translate(14.735923, 15.027432) rotate(-112.000000) translate(-14.735923, -15.027432) "></path>
                            <path d="M21.3066734,15.4532792 C21.3861888,14.9502562 21.4278178,14.4308962 21.4278178,13.8997397 C21.4278178,9.37142657 18.4021342,5.70050344 14.6697644,5.70050344 C10.9373945,5.70050344 7.91171092,9.37142657 7.91171092,13.8997397 C7.91171092,14.4308962 7.95333988,14.9502562 8.03285532,15.4532792 C7.95333988,15.9563023 7.91171092,16.4756623 7.91171092,17.0068187 C7.91171092,21.5351319 10.9373945,25.206055 14.6697644,25.206055 C18.4021342,25.206055 21.4278178,21.5351319 21.4278178,17.0068187 C21.4278178,16.4756623 21.3861888,15.9563023 21.3066734,15.4532792 Z M21.3066734,15.4532792 C20.7082891,19.2387212 17.9643393,22.098976 14.6697644,22.098976 C11.3751894,22.098976 8.63123963,19.2387212 8.03285532,15.4532792 C8.63123963,11.6678373 11.3751894,8.80758245 14.6697644,8.80758245 C17.9643393,8.80758245 20.7082891,11.6678373 21.3066734,15.4532792 Z" id="Combined-Shape" fill="#FFB7D0" transform="translate(14.669764, 15.453279) rotate(55.000000) translate(-14.669764, -15.453279) "></path>
                            <path d="M21.3418515,15.4285272 C21.421367,15.0256636 21.4629959,14.609716 21.4629959,14.1843208 C21.4629959,10.5576629 18.4373123,7.61767578 14.7049425,7.61767578 C10.9725726,7.61767578 7.94688903,10.5576629 7.94688903,14.1843208 C7.94688903,14.609716 7.98851799,15.0256636 8.06803343,15.4285272 C7.98851799,15.8313908 7.94688903,16.2473384 7.94688903,16.6727336 C7.94688903,20.2993915 10.9725726,23.2393786 14.7049425,23.2393786 C18.4373123,23.2393786 21.4629959,20.2993915 21.4629959,16.6727336 C21.4629959,16.2473384 21.421367,15.8313908 21.3418515,15.4285272 Z M21.3418515,15.4285272 C20.7434672,18.4602307 17.9995174,20.7509658 14.7049425,20.7509658 C11.4103675,20.7509658 8.66641774,18.4602307 8.06803343,15.4285272 C8.66641774,12.3968237 11.4103675,10.1060886 14.7049425,10.1060886 C17.9995174,10.1060886 20.7434672,12.3968237 21.3418515,15.4285272 Z" id="Combined-Shape" fill="#FFB1CD" transform="translate(14.704942, 15.428527) rotate(-35.000000) translate(-14.704942, -15.428527) "></path>
                            <path d="M19.83123,15.617928 C19.8947747,15.2159372 19.9280425,14.8008906 19.9280425,14.3764169 C19.9280425,10.7576155 17.5100675,7.82399734 14.5273442,7.82399734 C11.5446209,7.82399734 9.12664585,10.7576155 9.12664585,14.3764169 C9.12664585,14.8008906 9.15991363,15.2159372 9.2234584,15.617928 C9.15991363,16.0199189 9.12664585,16.4349654 9.12664585,16.8594391 C9.12664585,20.4782405 11.5446209,23.4118587 14.5273442,23.4118587 C17.5100675,23.4118587 19.9280425,20.4782405 19.9280425,16.8594391 C19.9280425,16.4349654 19.8947747,16.0199189 19.83123,15.617928 Z M19.83123,15.617928 C19.3530311,18.6430639 17.1602037,20.9288365 14.5273442,20.9288365 C11.8944846,20.9288365 9.70165721,18.6430639 9.2234584,15.617928 C9.70165721,12.5927921 11.8944846,10.3070195 14.5273442,10.3070195 C17.1602037,10.3070195 19.3530311,12.5927921 19.83123,15.617928 Z" id="Combined-Shape" fill="#FFA9C7" transform="translate(14.527344, 15.617928) rotate(-15.000000) translate(-14.527344, -15.617928) "></path>
                            <path d="M19.8223475,15.5846167 C19.8858923,15.2626683 19.9191601,14.9302637 19.9191601,14.5903091 C19.9191601,11.6920655 17.5011851,9.34257487 14.5184617,9.34257487 C11.5357384,9.34257487 9.11776341,11.6920655 9.11776341,14.5903091 C9.11776341,14.9302637 9.15103119,15.2626683 9.21457595,15.5846167 C9.15103119,15.9065651 9.11776341,16.2389697 9.11776341,16.5789242 C9.11776341,19.4771678 11.5357384,21.8266585 14.5184617,21.8266585 C17.5011851,21.8266585 19.9191601,19.4771678 19.9191601,16.5789242 C19.9191601,16.2389697 19.8858923,15.9065651 19.8223475,15.5846167 Z M19.8223475,15.5846167 C19.3441487,18.0074025 17.1513213,19.8380434 14.5184617,19.8380434 C11.8856022,19.8380434 9.69277477,18.0074025 9.21457595,15.5846167 C9.69277477,13.1618309 11.8856022,11.33119 14.5184617,11.33119 C17.1513213,11.33119 19.3441487,13.1618309 19.8223475,15.5846167 Z" id="Combined-Shape" fill="#FFB1CD" transform="translate(14.518462, 15.584617) rotate(-105.000000) translate(-14.518462, -15.584617) "></path>
                            <path d="M18.7544331,15.4138209 C18.8131007,15.0426835 18.8438151,14.6594925 18.8438151,14.2675979 C18.8438151,10.9265455 16.6114237,8.2180874 13.8576294,8.2180874 C11.1038351,8.2180874 8.87144368,10.9265455 8.87144368,14.2675979 C8.87144368,14.6594925 8.9021581,15.0426835 8.9608257,15.4138209 C8.9021581,15.7849583 8.87144368,16.1681493 8.87144368,16.5600439 C8.87144368,19.9010963 11.1038351,22.6095544 13.8576294,22.6095544 C16.6114237,22.6095544 18.8438151,19.9010963 18.8438151,16.5600439 C18.8438151,16.1681493 18.8131007,15.7849583 18.7544331,15.4138209 Z M18.7544331,15.4138209 C18.3129368,18.2067725 16.2884126,20.3171083 13.8576294,20.3171083 C11.4268462,20.3171083 9.40232196,18.2067725 8.9608257,15.4138209 C9.40232196,12.6208693 11.4268462,10.5105335 13.8576294,10.5105335 C16.2884126,10.5105335 18.3129368,12.6208693 18.7544331,15.4138209 Z" id="Combined-Shape" fill="#FFB1CD" transform="translate(13.857629, 15.413821) rotate(65.000000) translate(-13.857629, -15.413821) "></path>
                            <path d="M18.7831495,15.4003649 C18.8418171,15.1031266 18.8725316,14.7962346 18.8725316,14.4823721 C18.8725316,11.8065736 16.6401402,9.63741023 13.8863458,9.63741023 C11.1325515,9.63741023 8.90016011,11.8065736 8.90016011,14.4823721 C8.90016011,14.7962346 8.93087454,15.1031266 8.98954213,15.4003649 C8.93087454,15.6976033 8.90016011,16.0044952 8.90016011,16.3183577 C8.90016011,18.9941563 11.1325515,21.1633196 13.8863458,21.1633196 C16.6401402,21.1633196 18.8725316,18.9941563 18.8725316,16.3183577 C18.8725316,16.0044952 18.8418171,15.6976033 18.7831495,15.4003649 Z M18.7831495,15.4003649 C18.3416533,17.6371979 16.317129,19.3273341 13.8863458,19.3273341 C11.4555626,19.3273341 9.43103839,17.6371979 8.98954213,15.4003649 C9.43103839,13.163532 11.4555626,11.4733958 13.8863458,11.4733958 C16.317129,11.4733958 18.3416533,13.163532 18.7831495,15.4003649 Z" id="Combined-Shape" fill="#FFB1CD" transform="translate(13.886346, 15.400365) rotate(-25.000000) translate(-13.886346, -15.400365) "></path>
                            <path d="M18.8219421,15.4523319 C18.8753068,15.1147414 18.9032449,14.7661868 18.9032449,14.4097153 C18.9032449,11.3706588 16.8726381,8.90701671 14.3677577,8.90701671 C11.8628773,8.90701671 9.8322705,11.3706588 9.8322705,14.4097153 C9.8322705,14.7661868 9.86020867,15.1147414 9.91357334,15.4523319 C9.86020867,15.7899224 9.8322705,16.138477 9.8322705,16.4949485 C9.8322705,19.534005 11.8628773,21.9976471 14.3677577,21.9976471 C16.8726381,21.9976471 18.9032449,19.534005 18.9032449,16.4949485 C18.9032449,16.138477 18.8753068,15.7899224 18.8219421,15.4523319 Z M18.8219421,15.4523319 C18.4203524,17.9928302 16.5788238,19.912414 14.3677577,19.912414 C12.1566916,19.912414 10.315163,17.9928302 9.91357334,15.4523319 C10.315163,12.9118336 12.1566916,10.9922499 14.3677577,10.9922499 C16.5788238,10.9922499 18.4203524,12.9118336 18.8219421,15.4523319 Z" id="Combined-Shape" fill="#FFBDD4" transform="translate(14.367758, 15.452332) rotate(-345.000000) translate(-14.367758, -15.452332) "></path>
                            <path d="M18.8294015,15.4243572 C18.8827662,15.153986 18.9107044,14.8748339 18.9107044,14.5893413 C18.9107044,12.1554066 16.8800976,10.1823127 14.3752172,10.1823127 C11.8703367,10.1823127 9.83972995,12.1554066 9.83972995,14.5893413 C9.83972995,14.8748339 9.86766811,15.153986 9.92103278,15.4243572 C9.86766811,15.6947283 9.83972995,15.9738805 9.83972995,16.2593731 C9.83972995,18.6933078 11.8703367,20.6664017 14.3752172,20.6664017 C16.8800976,20.6664017 18.9107044,18.6933078 18.9107044,16.2593731 C18.9107044,15.9738805 18.8827662,15.6947283 18.8294015,15.4243572 Z M18.8294015,15.4243572 C18.4278119,17.4590041 16.5862832,18.9963698 14.3752172,18.9963698 C12.1641511,18.9963698 10.3226224,17.4590041 9.92103278,15.4243572 C10.3226224,13.3897103 12.1641511,11.8523446 14.3752172,11.8523446 C16.5862832,11.8523446 18.4278119,13.3897103 18.8294015,15.4243572 Z" id="Combined-Shape" fill="#FFBDD4" transform="translate(14.375217, 15.424357) rotate(-75.000000) translate(-14.375217, -15.424357) "></path>
                            <path d="M17.0103632,15.2715713 C17.0417435,15.0717281 17.0581722,14.8653945 17.0581722,14.6543743 C17.0581722,12.8553461 15.8641024,11.3969456 14.3911426,11.3969456 C12.9181828,11.3969456 11.724113,12.8553461 11.724113,14.6543743 C11.724113,14.8653945 11.7405417,15.0717281 11.771922,15.2715713 C11.7405417,15.4714145 11.724113,15.6777482 11.724113,15.8887683 C11.724113,17.6877965 12.9181828,19.146197 14.3911426,19.146197 C15.8641024,19.146197 17.0581722,17.6877965 17.0581722,15.8887683 C17.0581722,15.6777482 17.0417435,15.4714145 17.0103632,15.2715713 Z M17.0103632,15.2715713 C16.774214,16.7754683 15.691329,17.911803 14.3911426,17.911803 C13.0909562,17.911803 12.0080712,16.7754683 11.771922,15.2715713 C12.0080712,13.7676743 13.0909562,12.6313396 14.3911426,12.6313396 C15.691329,12.6313396 16.774214,13.7676743 17.0103632,15.2715713 Z" id="Combined-Shape" fill="#FFB1CD" transform="translate(14.391143, 15.271571) rotate(65.000000) translate(-14.391143, -15.271571) "></path>
                            <path d="M17.1505849,15.4564868 C17.1791288,15.2747073 17.1940724,15.0870241 17.1940724,14.8950779 C17.1940724,13.2586628 16.1079339,11.9320863 14.7681142,11.9320863 C13.4282944,11.9320863 12.3421559,13.2586628 12.3421559,14.8950779 C12.3421559,15.0870241 12.3570995,15.2747073 12.3856434,15.4564868 C12.3570995,15.6382663 12.3421559,15.8259496 12.3421559,16.0178957 C12.3421559,17.6543108 13.4282944,18.9808873 14.7681142,18.9808873 C16.1079339,18.9808873 17.1940724,17.6543108 17.1940724,16.0178957 C17.1940724,15.8259496 17.1791288,15.6382663 17.1505849,15.4564868 Z M17.1505849,15.4564868 C16.9357811,16.8244474 15.9507774,17.8580694 14.7681142,17.8580694 C13.5854509,17.8580694 12.6004472,16.8244474 12.3856434,15.4564868 C12.6004472,14.0885262 13.5854509,13.0549042 14.7681142,13.0549042 C15.9507774,13.0549042 16.9357811,14.0885262 17.1505849,15.4564868 Z" id="Combined-Shape" fill="#FFBDD4" transform="translate(14.768114, 15.456487) rotate(-345.000000) translate(-14.768114, -15.456487) "></path>
                            <path d="M17.2373966,15.3869257 C17.2659405,15.2413413 17.2808841,15.0910286 17.2808841,14.9373018 C17.2808841,13.6267216 16.1947456,12.5642864 14.8549259,12.5642864 C13.5151061,12.5642864 12.4289676,13.6267216 12.4289676,14.9373018 C12.4289676,15.0910286 12.4439113,15.2413413 12.4724551,15.3869257 C12.4439113,15.5325102 12.4289676,15.6828229 12.4289676,15.8365497 C12.4289676,17.1471299 13.5151061,18.2095651 14.8549259,18.2095651 C16.1947456,18.2095651 17.2808841,17.1471299 17.2808841,15.8365497 C17.2808841,15.6828229 17.2659405,15.5325102 17.2373966,15.3869257 Z M17.2373966,15.3869257 C17.0225928,16.4825048 16.0375891,17.3103171 14.8549259,17.3103171 C13.6722626,17.3103171 12.6872589,16.4825048 12.4724551,15.3869257 C12.6872589,14.2913466 13.6722626,13.4635343 14.8549259,13.4635343 C16.0375891,13.4635343 17.0225928,14.2913466 17.2373966,15.3869257 Z" id="Combined-Shape" fill="#FFBDD4" transform="translate(14.854926, 15.386926) rotate(-75.000000) translate(-14.854926, -15.386926) "></path>
                            <path d="M16.2386571,14.6249789 C16.259477,14.5187896 16.2703769,14.4091516 16.2703769,14.2970234 C16.2703769,13.3410867 15.478148,12.566147 14.500884,12.566147 C13.5236201,12.566147 12.7313911,13.3410867 12.7313911,14.2970234 C12.7313911,14.4091516 12.742291,14.5187896 12.7631109,14.6249789 C12.742291,14.7311681 12.7313911,14.8408061 12.7313911,14.9529344 C12.7313911,15.908871 13.5236201,16.6838108 14.500884,16.6838108 C15.478148,16.6838108 16.2703769,15.908871 16.2703769,14.9529344 C16.2703769,14.8408061 16.259477,14.7311681 16.2386571,14.6249789 Z M16.2386571,14.6249789 C16.0819793,15.4240938 15.3635181,16.0278997 14.500884,16.0278997 C13.63825,16.0278997 12.9197887,15.4240938 12.7631109,14.6249789 C12.9197887,13.825864 13.63825,13.222058 14.500884,13.222058 C15.3635181,13.222058 16.0819793,13.825864 16.2386571,14.6249789 Z" id="Combined-Shape" fill="#FFBDD4" transform="translate(14.500884, 14.624979) rotate(-176.000000) translate(-14.500884, -14.624979) "></path>
                        </g>
                        <g id="Group-5" transform="translate(47.000000, 9.500000) rotate(14.000000) translate(-47.000000, -9.500000) translate(42.000000, 3.000000)">
                            <path d="M4.15457681,1.31688988 C3.08694773,5.10911262 1.71112057,5.41131204 0.349290303,8.00526811 C-0.740067272,10.5237743 1.0665973,12.0198414 1.0665973,12.0198414 C1.0665973,12.0198414 2.53960281,13.4916471 6.24611154,12.7580767 C8.70209787,12.0198414 9.03415757,9.64450332 9.02709248,9.02077546 C9.02709234,6.18913898 4.16617423,-0.531632088 4.15457681,1.31688988 Z" id="Path-23" fill="#75947F"></path>
                            <path d="M4.34488093,1.00000026 C4.26828452,0.764326188 4.15594374,1.09901367 4.15457681,1.31688988 C3.08694773,5.10911262 1.71112057,5.41131204 0.349290303,8.00526811 C-0.740067272,10.5237743 1.0665973,12.0198414 1.0665973,12.0198414 C1.0665973,12.0198414 1.90593234,12.8584928 3.91171284,12.9541412 C4.56309361,12.9852032 6.45217991,7.48379907 4.34488093,1.00000026 Z" id="Path-23" fill="#BAD1C1"></path>
                        </g>
                        <g id="Group-5" transform="translate(56.108805, 46.647824) rotate(104.000000) translate(-56.108805, -46.647824) translate(49.108805, 37.147824)">
                            <path d="M6.39804829,1.29226614 C4.75389951,7.04002255 2.63512569,7.49805699 0.537907066,11.4296371 C-1.1397036,15.2468602 1.64255984,17.5144036 1.64255984,17.5144036 C1.64255984,17.5144036 3.91098833,19.7451745 9.61901177,18.6333242 C13.4012307,17.5144036 13.9126027,13.914176 13.9017224,12.9688107 C13.9017222,8.67698558 6.41590831,-1.50948225 6.39804829,1.29226614 Z" id="Path-23" fill="#75947F"></path>
                            <path d="M6.69111663,0.811966199 C6.57315816,0.4547622 6.40015336,0.96203781 6.39804829,1.29226614 C4.75389951,7.04002255 2.63512569,7.49805699 0.537907066,11.4296371 C-1.1397036,15.2468602 1.64255984,17.5144036 1.64255984,17.5144036 C1.64255984,17.5144036 2.9351358,18.7855218 6.02403778,18.9304932 C7.02716416,18.9775729 9.93635706,10.6392624 6.69111663,0.811966199 Z" id="Path-23" fill="#BAD1C1"></path>
                        </g>
                        <g id="Group-5" transform="translate(7.021114, 36.939908) scale(-1, 1) rotate(86.000000) translate(-7.021114, -36.939908) translate(2.021114, 30.439908)">
                            <path d="M4.15457681,1.31688988 C3.08694773,5.10911262 1.71112057,5.41131204 0.349290303,8.00526811 C-0.740067272,10.5237743 1.0665973,12.0198414 1.0665973,12.0198414 C1.0665973,12.0198414 2.53960281,13.4916471 6.24611154,12.7580767 C8.70209787,12.0198414 9.03415757,9.64450332 9.02709248,9.02077546 C9.02709234,6.18913898 4.16617423,-0.531632088 4.15457681,1.31688988 Z" id="Path-23" fill="#75947F"></path>
                            <path d="M4.34488093,1.00000026 C4.26828452,0.764326188 4.15594374,1.09901367 4.15457681,1.31688988 C3.08694773,5.10911262 1.71112057,5.41131204 0.349290303,8.00526811 C-0.740067272,10.5237743 1.0665973,12.0198414 1.0665973,12.0198414 C1.0665973,12.0198414 1.90593234,12.8584928 3.91171284,12.9541412 C4.56309361,12.9852032 6.45217991,7.48379907 4.34488093,1.00000026 Z" id="Path-23" fill="#BAD1C1"></path>
                        </g>
                        <g id="Group-2" transform="translate(9.000000, 7.000000)">
                            <path d="M23.6411534,26.7918383 C31.0395152,26.7918383 37.0370725,20.794281 37.0370725,13.3959191 C37.0370725,5.99755729 31.0395152,0 23.6411534,0 C16.2427915,0 10.2452342,5.99755729 10.2452342,13.3959191 C10.2452342,20.794281 16.2427915,26.7918383 23.6411534,26.7918383 Z" id="Oval-22" fill="#F09BB8"></path>
                            <ellipse id="Oval-22" fill="#F09BB8" cx="32.6040809" cy="19.1861289" rx="13.3959191" ry="13.3959191"></ellipse>
                            <ellipse id="Oval-22" fill="#F09BB8" cx="30.8414599" cy="32.3529074" rx="13.3959191" ry="13.3959191"></ellipse>
                            <ellipse id="Oval-22" fill="#F09BB8" cx="16.4672861" cy="32.6040809" rx="13.3959191" ry="13.3959191"></ellipse>
                            <ellipse id="Oval-22" fill="#F09BB8" cx="13.3959191" cy="19.8162659" rx="13.3959191" ry="13.3959191"></ellipse>
                            <ellipse id="Oval-28" fill="#FBA4C2" cx="19.1814672" cy="16.5027767" rx="10.9969852" ry="10.9969852"></ellipse>
                            <circle id="Oval-28" fill="#FBA4C2" cx="32.027503" cy="24.4828899" r="10.9969852"></circle>
                            <ellipse id="Oval-28" fill="#FBA4C2" cx="15.288729" cy="30.1273602" rx="10.9969852" ry="10.9969852"></ellipse>
                            <ellipse id="Oval-54" fill="#FFBAD2" cx="21.4197916" cy="23.4123869" rx="6.61765484" ry="7.59083937"></ellipse>
                            <path d="M35.6745875,23.4859167 C35.8326233,22.4901709 35.9153602,21.4620857 35.9153602,20.4106491 C35.9153602,11.446748 29.9018567,4.18007043 22.4838242,4.18007043 C15.0657917,4.18007043 9.05228821,11.446748 9.05228821,20.4106491 C9.05228821,21.4620857 9.13502517,22.4901709 9.293061,23.4859167 C9.13502517,24.4816625 9.05228821,25.5097477 9.05228821,26.5611842 C9.05228821,35.5250853 15.0657917,42.7917629 22.4838242,42.7917629 C29.9018567,42.7917629 35.9153602,35.5250853 35.9153602,26.5611842 C35.9153602,25.5097477 35.8326233,24.4816625 35.6745875,23.4859167 Z M35.6745875,23.4859167 C34.4853071,30.9792869 29.0317456,36.6412279 22.4838242,36.6412279 C15.9359029,36.6412279 10.4823414,30.9792869 9.293061,23.4859167 C10.4823414,15.9925465 15.9359029,10.3306055 22.4838242,10.3306055 C29.0317456,10.3306055 34.4853071,15.9925465 35.6745875,23.4859167 Z" id="Combined-Shape" fill="#FFABC8"></path>
                            <path d="M35.6745875,23.4004926 C35.8326233,22.6030148 35.9153602,21.7796368 35.9153602,20.9375571 C35.9153602,13.7585035 29.9018567,7.93873077 22.4838242,7.93873077 C15.0657917,7.93873077 9.05228821,13.7585035 9.05228821,20.9375571 C9.05228821,21.7796368 9.13502517,22.6030148 9.293061,23.4004926 C9.13502517,24.1979704 9.05228821,25.0213484 9.05228821,25.8634281 C9.05228821,33.0424816 15.0657917,38.8622544 22.4838242,38.8622544 C29.9018567,38.8622544 35.9153602,33.0424816 35.9153602,25.8634281 C35.9153602,25.0213484 35.8326233,24.1979704 35.6745875,23.4004926 Z M35.6745875,23.4004926 C34.4853071,29.4018201 29.0317456,33.9363834 22.4838242,33.9363834 C15.9359029,33.9363834 10.4823414,29.4018201 9.293061,23.4004926 C10.4823414,17.3991651 15.9359029,12.8646018 22.4838242,12.8646018 C29.0317456,12.8646018 34.4853071,17.3991651 35.6745875,23.4004926 Z" id="Combined-Shape" fill="#FFB1CD" transform="translate(22.483824, 23.400493) rotate(-90.000000) translate(-22.483824, -23.400493) "></path>
                            <path d="M33.9852781,23.3150685 C34.1190008,22.4691252 34.189009,21.5957076 34.189009,20.7024518 C34.189009,13.0871022 29.1006598,6.91364158 22.8238631,6.91364158 C16.5470664,6.91364158 11.4587173,13.0871022 11.4587173,20.7024518 C11.4587173,21.5957076 11.5287255,22.4691252 11.6624481,23.3150685 C11.5287255,24.1610118 11.4587173,25.0344294 11.4587173,25.9276852 C11.4587173,33.5430348 16.5470664,39.7164954 22.8238631,39.7164954 C29.1006598,39.7164954 34.189009,33.5430348 34.189009,25.9276852 C34.189009,25.0344294 34.1190008,24.1610118 33.9852781,23.3150685 Z M33.9852781,23.3150685 C32.978964,29.6811175 28.3644119,34.4912621 22.8238631,34.4912621 C17.2833143,34.4912621 12.6687622,29.6811175 11.6624481,23.3150685 C12.6687622,16.9490195 17.2833143,12.1388749 22.8238631,12.1388749 C28.3644119,12.1388749 32.978964,16.9490195 33.9852781,23.3150685 Z" id="Combined-Shape" fill="#FFB7D0" transform="translate(22.823863, 23.315068) rotate(-22.000000) translate(-22.823863, -23.315068) "></path>
                            <path d="M33.9582238,23.2477803 C34.0919464,22.570277 34.1619546,21.87077 34.1619546,21.1553749 C34.1619546,15.0563559 29.0736055,10.1121242 22.7968088,10.1121242 C16.520012,10.1121242 11.4316629,15.0563559 11.4316629,21.1553749 C11.4316629,21.87077 11.5016711,22.570277 11.6353937,23.2477803 C11.5016711,23.9252835 11.4316629,24.6247905 11.4316629,25.3401857 C11.4316629,31.4392046 16.520012,36.3834363 22.7968088,36.3834363 C29.0736055,36.3834363 34.1619546,31.4392046 34.1619546,25.3401857 C34.1619546,24.6247905 34.0919464,23.9252835 33.9582238,23.2477803 Z M33.9582238,23.2477803 C32.9519096,28.3462532 28.3373576,32.1986256 22.7968088,32.1986256 C17.2562599,32.1986256 12.6417079,28.3462532 11.6353937,23.2477803 C12.6417079,18.1493074 17.2562599,14.296935 22.7968088,14.296935 C28.3373576,14.296935 32.9519096,18.1493074 33.9582238,23.2477803 Z" id="Combined-Shape" fill="#FFB1CD" transform="translate(22.796809, 23.247780) rotate(-112.000000) translate(-22.796809, -23.247780) "></path>
                            <path d="M32.96191,23.9065756 C33.0849222,23.1283875 33.1493231,22.3249257 33.1493231,21.5032146 C33.1493231,14.4978108 28.4685216,8.8188089 22.6944602,8.8188089 C16.9203989,8.8188089 12.2395973,14.4978108 12.2395973,21.5032146 C12.2395973,22.3249257 12.3039983,23.1283875 12.4270105,23.9065756 C12.3039983,24.6847637 12.2395973,25.4882255 12.2395973,26.3099367 C12.2395973,33.3153405 16.9203989,38.9943424 22.6944602,38.9943424 C28.4685216,38.9943424 33.1493231,33.3153405 33.1493231,26.3099367 C33.1493231,25.4882255 33.0849222,24.6847637 32.96191,23.9065756 Z M32.96191,23.9065756 C32.0361958,29.7627407 27.7912429,34.1876202 22.6944602,34.1876202 C17.5976776,34.1876202 13.3527247,29.7627407 12.4270105,23.9065756 C13.3527247,18.0504106 17.5976776,13.625531 22.6944602,13.625531 C27.7912429,13.625531 32.0361958,18.0504106 32.96191,23.9065756 Z" id="Combined-Shape" fill="#FFB7D0" transform="translate(22.694460, 23.906576) rotate(55.000000) translate(-22.694460, -23.906576) "></path>
                            <path d="M33.0163313,23.8682836 C33.1393435,23.2450445 33.2037445,22.601564 33.2037445,21.9434679 C33.2037445,16.3329454 28.5229429,11.7847183 22.7488816,11.7847183 C16.9748202,11.7847183 12.2940187,16.3329454 12.2940187,21.9434679 C12.2940187,22.601564 12.3584196,23.2450445 12.4814318,23.8682836 C12.3584196,24.4915228 12.2940187,25.1350033 12.2940187,25.7930994 C12.2940187,31.4036219 16.9748202,35.951849 22.7488816,35.951849 C28.5229429,35.951849 33.2037445,31.4036219 33.2037445,25.7930994 C33.2037445,25.1350033 33.1393435,24.4915228 33.0163313,23.8682836 Z M33.0163313,23.8682836 C32.0906171,28.5583981 27.8456642,32.1022176 22.7488816,32.1022176 C17.6520989,32.1022176 13.407146,28.5583981 12.4814318,23.8682836 C13.407146,19.1781692 17.6520989,15.6343497 22.7488816,15.6343497 C27.8456642,15.6343497 32.0906171,19.1781692 33.0163313,23.8682836 Z" id="Combined-Shape" fill="#FFB1CD" transform="translate(22.748882, 23.868284) rotate(-35.000000) translate(-22.748882, -23.868284) "></path>
                            <path d="M30.6793653,24.161291 C30.7776705,23.539402 30.8291365,22.8973155 30.8291365,22.2406451 C30.8291365,16.6422767 27.088474,12.1039024 22.474133,12.1039024 C17.8597919,12.1039024 14.1191294,16.6422767 14.1191294,22.2406451 C14.1191294,22.8973155 14.1705954,23.539402 14.2689006,24.161291 C14.1705954,24.78318 14.1191294,25.4252665 14.1191294,26.081937 C14.1191294,31.6803054 17.8597919,36.2186796 22.474133,36.2186796 C27.088474,36.2186796 30.8291365,31.6803054 30.8291365,26.081937 C30.8291365,25.4252665 30.7776705,24.78318 30.6793653,24.161291 Z M30.6793653,24.161291 C29.9395808,28.8412452 26.5472268,32.3773877 22.474133,32.3773877 C18.4010391,32.3773877 15.0086851,28.8412452 14.2689006,24.161291 C15.0086851,19.4813368 18.4010391,15.9451944 22.474133,15.9451944 C26.5472268,15.9451944 29.9395808,19.4813368 30.6793653,24.161291 Z" id="Combined-Shape" fill="#FFA9C7" transform="translate(22.474133, 24.161291) rotate(-15.000000) translate(-22.474133, -24.161291) "></path>
                            <path d="M30.6656239,24.1097576 C30.7639291,23.6116961 30.8153952,23.0974587 30.8153952,22.5715412 C30.8153952,18.0878922 27.0747327,14.4531765 22.4603916,14.4531765 C17.8460506,14.4531765 14.1053881,18.0878922 14.1053881,22.5715412 C14.1053881,23.0974587 14.1568541,23.6116961 14.2551593,24.1097576 C14.1568541,24.6078192 14.1053881,25.1220566 14.1053881,25.6479741 C14.1053881,30.1316231 17.8460506,33.7663388 22.4603916,33.7663388 C27.0747327,33.7663388 30.8153952,30.1316231 30.8153952,25.6479741 C30.8153952,25.1220566 30.7639291,24.6078192 30.6656239,24.1097576 Z M30.6656239,24.1097576 C29.9258395,27.8578626 26.5334854,30.6899059 22.4603916,30.6899059 C18.3872978,30.6899059 14.9949438,27.8578626 14.2551593,24.1097576 C14.9949438,20.3616527 18.3872978,17.5296094 22.4603916,17.5296094 C26.5334854,17.5296094 29.9258395,20.3616527 30.6656239,24.1097576 Z" id="Combined-Shape" fill="#FFB1CD" transform="translate(22.460392, 24.109758) rotate(-105.000000) translate(-22.460392, -24.109758) "></path>
                            <path d="M29.013536,23.8455327 C29.1042961,23.2713747 29.151812,22.6785694 29.151812,22.0722995 C29.151812,16.9036152 25.6982516,12.7135687 21.4380689,12.7135687 C17.1778862,12.7135687 13.7243258,16.9036152 13.7243258,22.0722995 C13.7243258,22.6785694 13.7718417,23.2713747 13.8626018,23.8455327 C13.7718417,24.4196907 13.7243258,25.0124959 13.7243258,25.6187659 C13.7243258,30.7874501 17.1778862,34.9774966 21.4380689,34.9774966 C25.6982516,34.9774966 29.151812,30.7874501 29.151812,25.6187659 C29.151812,25.0124959 29.1042961,24.4196907 29.013536,23.8455327 Z M29.013536,23.8455327 C28.3305312,28.1662926 25.198546,31.4310302 21.4380689,31.4310302 C17.6775918,31.4310302 14.5456066,28.1662926 13.8626018,23.8455327 C14.5456066,19.5247727 17.6775918,16.2600351 21.4380689,16.2600351 C25.198546,16.2600351 28.3305312,19.5247727 29.013536,23.8455327 Z" id="Combined-Shape" fill="#FFB1CD" transform="translate(21.438069, 23.845533) rotate(65.000000) translate(-21.438069, -23.845533) "></path>
                            <path d="M29.057961,23.824716 C29.1487211,23.3648815 29.196237,22.8901126 29.196237,22.4045602 C29.196237,18.2650387 25.7426766,14.9092935 21.4824939,14.9092935 C17.2223112,14.9092935 13.7687508,18.2650387 13.7687508,22.4045602 C13.7687508,22.8901126 13.8162667,23.3648815 13.9070268,23.824716 C13.8162667,24.2845505 13.7687508,24.7593193 13.7687508,25.2448718 C13.7687508,29.3843932 17.2223112,32.7401384 21.4824939,32.7401384 C25.7426766,32.7401384 29.196237,29.3843932 29.196237,25.2448718 C29.196237,24.7593193 29.1487211,24.2845505 29.057961,23.824716 Z M29.057961,23.824716 C28.3749562,27.2851476 25.242971,29.8998268 21.4824939,29.8998268 C17.7220168,29.8998268 14.5900316,27.2851476 13.9070268,23.824716 C14.5900316,20.3642844 17.7220168,17.7496051 21.4824939,17.7496051 C25.242971,17.7496051 28.3749562,20.3642844 29.057961,23.824716 Z" id="Combined-Shape" fill="#FFB1CD" transform="translate(21.482494, 23.824716) rotate(-25.000000) translate(-21.482494, -23.824716) "></path>
                            <path d="M29.1179739,23.9051101 C29.2005303,23.3828499 29.2437513,22.843628 29.2437513,22.2921584 C29.2437513,17.5906686 26.1023562,13.7793581 22.2272491,13.7793581 C18.3521419,13.7793581 15.2107468,17.5906686 15.2107468,22.2921584 C15.2107468,22.843628 15.2539678,23.3828499 15.3365242,23.9051101 C15.2539678,24.4273703 15.2107468,24.9665922 15.2107468,25.5180617 C15.2107468,30.2195515 18.3521419,34.0308621 22.2272491,34.0308621 C26.1023562,34.0308621 29.2437513,30.2195515 29.2437513,25.5180617 C29.2437513,24.9665922 29.2005303,24.4273703 29.1179739,23.9051101 Z M29.1179739,23.9051101 C28.4967056,27.835319 25.6478187,30.8049588 22.2272491,30.8049588 C18.8066794,30.8049588 15.9577925,27.835319 15.3365242,23.9051101 C15.9577925,19.9749012 18.8066794,17.0052614 22.2272491,17.0052614 C25.6478187,17.0052614 28.4967056,19.9749012 29.1179739,23.9051101 Z" id="Combined-Shape" fill="#FFBDD4" transform="translate(22.227249, 23.905110) rotate(-345.000000) translate(-22.227249, -23.905110) "></path>
                            <path d="M29.1295139,23.8618325 C29.2120702,23.4435622 29.2552912,23.0117075 29.2552912,22.5700438 C29.2552912,18.8046914 26.1138962,15.7522701 22.238789,15.7522701 C18.3636818,15.7522701 15.2222868,18.8046914 15.2222868,22.5700438 C15.2222868,23.0117075 15.2655077,23.4435622 15.3480641,23.8618325 C15.2655077,24.2801029 15.2222868,24.7119576 15.2222868,25.1536213 C15.2222868,28.9189737 18.3636818,31.971395 22.238789,31.971395 C26.1138962,31.971395 29.2552912,28.9189737 29.2552912,25.1536213 C29.2552912,24.7119576 29.2120702,24.2801029 29.1295139,23.8618325 Z M29.1295139,23.8618325 C28.5082455,27.0094777 25.6593587,29.3878176 22.238789,29.3878176 C18.8182193,29.3878176 15.9693325,27.0094777 15.3480641,23.8618325 C15.9693325,20.7141874 18.8182193,18.3358475 22.238789,18.3358475 C25.6593587,18.3358475 28.5082455,20.7141874 29.1295139,23.8618325 Z" id="Combined-Shape" fill="#FFBDD4" transform="translate(22.238789, 23.861833) rotate(-75.000000) translate(-22.238789, -23.861833) "></path>
                            <path d="M26.31542,23.6254693 C26.3639661,23.3163073 26.3893816,22.9971045 26.3893816,22.6706514 C26.3893816,19.8875138 24.5421284,17.6313349 22.263426,17.6313349 C19.9847236,17.6313349 18.1374704,19.8875138 18.1374704,22.6706514 C18.1374704,22.9971045 18.1628859,23.3163073 18.211432,23.6254693 C18.1628859,23.9346313 18.1374704,24.2538342 18.1374704,24.5802872 C18.1374704,27.3634249 19.9847236,29.6196037 22.263426,29.6196037 C24.5421284,29.6196037 26.3893816,27.3634249 26.3893816,24.5802872 C26.3893816,24.2538342 26.3639661,23.9346313 26.31542,23.6254693 Z M26.31542,23.6254693 C25.9500919,25.9520323 24.274844,27.709968 22.263426,27.709968 C20.252008,27.709968 18.5767601,25.9520323 18.211432,23.6254693 C18.5767601,21.2989063 20.252008,19.5409706 22.263426,19.5409706 C24.274844,19.5409706 25.9500919,21.2989063 26.31542,23.6254693 Z" id="Combined-Shape" fill="#FFB1CD" transform="translate(22.263426, 23.625469) rotate(65.000000) translate(-22.263426, -23.625469) "></path>
                            <path d="M26.5323462,23.9115378 C26.5765042,23.6303208 26.5996224,23.3399705 26.5996224,23.0430254 C26.5996224,20.5114539 24.9193413,18.4592098 22.8466096,18.4592098 C20.7738779,18.4592098 19.0935968,20.5114539 19.0935968,23.0430254 C19.0935968,23.3399705 19.116715,23.6303208 19.160873,23.9115378 C19.116715,24.1927548 19.0935968,24.4831051 19.0935968,24.7800502 C19.0935968,27.3116217 20.7738779,29.3638658 22.8466096,29.3638658 C24.9193413,29.3638658 26.5996224,27.3116217 26.5996224,24.7800502 C26.5996224,24.4831051 26.5765042,24.1927548 26.5323462,23.9115378 Z M26.5323462,23.9115378 C26.2000398,26.0278041 24.6762166,27.6268409 22.8466096,27.6268409 C21.0170026,27.6268409 19.4931794,26.0278041 19.160873,23.9115378 C19.4931794,21.7952715 21.0170026,20.1962347 22.8466096,20.1962347 C24.6762166,20.1962347 26.2000398,21.7952715 26.5323462,23.9115378 Z" id="Combined-Shape" fill="#FFBDD4" transform="translate(22.846610, 23.911538) rotate(-345.000000) translate(-22.846610, -23.911538) "></path>
                            <path d="M26.6666459,23.8039252 C26.7108039,23.5787028 26.7339221,23.3461656 26.7339221,23.1083467 C26.7339221,21.0808492 25.053641,19.4372378 22.9809093,19.4372378 C20.9081776,19.4372378 19.2278965,21.0808492 19.2278965,23.1083467 C19.2278965,23.3461656 19.2510147,23.5787028 19.2951727,23.8039252 C19.2510147,24.0291477 19.2278965,24.2616849 19.2278965,24.4995038 C19.2278965,26.5270012 20.9081776,28.1706127 22.9809093,28.1706127 C25.053641,28.1706127 26.7339221,26.5270012 26.7339221,24.4995038 C26.7339221,24.2616849 26.7108039,24.0291477 26.6666459,23.8039252 Z M26.6666459,23.8039252 C26.3343395,25.4988111 24.8105163,26.7794556 22.9809093,26.7794556 C21.1513023,26.7794556 19.6274791,25.4988111 19.2951727,23.8039252 C19.6274791,22.1090394 21.1513023,20.8283948 22.9809093,20.8283948 C24.8105163,20.8283948 26.3343395,22.1090394 26.6666459,23.8039252 Z" id="Combined-Shape" fill="#FFBDD4" transform="translate(22.980909, 23.803925) rotate(-75.000000) translate(-22.980909, -23.803925) "></path>
                            <path d="M25.1215731,22.6251761 C25.153782,22.4608989 25.1706444,22.2912864 25.1706444,22.1178214 C25.1706444,20.6389656 23.9450481,19.4401162 22.4331985,19.4401162 C20.9213489,19.4401162 19.6957526,20.6389656 19.6957526,22.1178214 C19.6957526,22.2912864 19.712615,22.4608989 19.7448239,22.6251761 C19.712615,22.7894532 19.6957526,22.9590657 19.6957526,23.1325307 C19.6957526,24.6113865 20.9213489,25.810236 22.4331985,25.810236 C23.9450481,25.810236 25.1706444,24.6113865 25.1706444,23.1325307 C25.1706444,22.9590657 25.153782,22.7894532 25.1215731,22.6251761 Z M25.1215731,22.6251761 C24.879189,23.8614251 23.767713,24.7955266 22.4331985,24.7955266 C21.0986839,24.7955266 19.987208,23.8614251 19.7448239,22.6251761 C19.987208,21.3889271 21.0986839,20.4548255 22.4331985,20.4548255 C23.767713,20.4548255 24.879189,21.3889271 25.1215731,22.6251761 Z" id="Combined-Shape" fill="#FFBDD4" transform="translate(22.433198, 22.625176) rotate(-176.000000) translate(-22.433198, -22.625176) "></path>
                        </g>
                    </g>
                </g>
                <g id="Teacup-1" transform="translate(491.233776, 389.000000)">
                    <g id="Group-6">
                        <g id="Group-4" transform="translate(6.168088, 9.499250)" fill="#A5BADC">
                            <path d="M17.8345934,6.25924045 C17.8345934,6.25924045 13.1566484,4.41329273 13.1566477,1.94749368 C13.156647,-0.518305366 4.70318119,-0.776808913 4.70318119,1.94749368 C4.70318119,4.67179628 0.610182741,5.72008401 0.610182741,5.72008401 L0,6.25924045" id="Path-12"></path>
                            <path d="M0,6.1928803 C0,6.9092856 3.98109075,7.49004684 8.89201507,7.49004684 C13.8029394,7.49004684 17.7840301,6.9092856 17.7840301,6.1928803" id="Oval-3"></path>
                        </g>
                        <path d="M22.3484344,13.8152837 C26.5238459,12.9924926 29.7189696,8.31290726 29.7189696,2.66326271 L0,2.66326271 C0,8.31327851 3.19705745,12.9912819 7.36942148,13.8149354 C9.42642207,14.4582961 12.0290437,14.8425787 14.8594848,14.8425787 C17.6894161,14.8425787 20.29161,14.4584345 22.3484344,13.8152837 Z" id="Combined-Shape" fill="#B4C9EB"></path>
                        <ellipse id="Oval-14" fill="#A5BADC" cx="14.8594848" cy="2.67166417" rx="14.8594848" ry="2.67166417"></ellipse>
                    </g>
                    <g id="Group-8" transform="translate(31.856758, 8.186531) rotate(3.000000) translate(-31.856758, -8.186531) translate(24.856758, 1.186531)" fill="#B4C9EB">
                        <path d="M6.68974697,11.3186718 C6.72775293,11.2149351 6.74858162,11.1022702 6.74858162,10.9845052 C6.74858162,10.4696415 6.35046187,10.052262 5.85935627,10.052262 C5.36825067,10.052262 4.97013092,10.4696415 4.97013092,10.9845052 C4.97013092,11.1568077 5.01471837,11.3181925 5.09245689,11.45667 C5.0879336,11.4570143 5.08357391,11.4573678 5.07938419,11.4577311 C5.13940721,11.584189 5.63360666,12.2990471 6.73762739,12.1234929 C8.24907269,11.8428995 9.39961464,10.9550403 10.027505,9.9760861 C11.1188798,8.36065547 10.9558457,6.52943774 10.8210459,5.83387542 C10.406506,3.51833477 8.07327374,0.896254299 5.47650095,1.63201462 C2.08765281,2.62007474 3.14131582,6.35821533 3.34897546,6.77315851 C3.48574274,7.25430753 3.91097564,7.60512362 4.41436507,7.60512362 C5.02824707,7.60512362 5.52589676,7.08339926 5.52589676,6.43981964 C5.52589676,5.79624003 5.02824707,5.27451566 4.41436507,5.27451566 C4.20899527,5.27451566 4.01663406,5.33290647 3.85156234,5.43471632 C3.87943913,5.0977502 3.91796968,4.89458619 4.00103595,4.60222245 C4.73795664,2.00852333 9.48621622,2.04042785 8.45951474,6.19460716 C8.45951474,6.19460716 10.7712985,7.56940013 8.97936613,9.9760861 C8.5432773,10.7108469 7.55372428,11.1576266 6.68974697,11.3186718 Z" id="Combined-Shape" transform="translate(6.974649, 6.828434) rotate(39.000000) translate(-6.974649, -6.828434) "></path>
                    </g>
                </g>
                <g id="Moon" transform="translate(601.733776, 199.500000) scale(-1, 1) translate(-601.733776, -199.500000) translate(454.233776, 83.000000)">
                    <path d="M289.976655,82.5530833 C275.444572,34.7705472 231.032834,0 178.5,0 C114.158827,0 62,52.1588266 62,116.5 C62,180.841173 114.158827,233 178.5,233 C237.922955,233 286.954812,188.510415 294.103559,131.023253 C293.863018,130.966225 293.622636,130.885589 293.386058,130.780258 C291.620178,129.994037 290.734955,128.129655 291.408859,126.616043 C291.940745,125.421406 293.284897,124.802327 294.696013,124.981007 C294.887621,122.317727 294.989701,119.629652 294.99926,116.919776 C290.159105,118.997509 284.302248,119.073431 278.875851,116.657443 C269.037375,112.277072 264.339554,101.363931 268.382974,92.2822605 C271.947399,84.2764306 281.114834,80.3663589 289.976655,82.5530833 Z" id="Combined-Shape" fill="#D8D8D8" transform="translate(178.499630, 116.500000) scale(-1, 1) translate(-178.499630, -116.500000) "></path>
                    <path d="M293.370026,136.02636 C294.441444,129.677333 294.99926,123.153809 294.99926,116.5 C294.99926,52.1588266 242.840433,0 178.49926,0 C125.966425,0 81.5546875,34.7705472 67.0226046,82.5530833 C75.884426,80.3663589 85.0518608,84.2764306 88.6162859,92.2822605 C92.6597059,101.363931 87.961885,112.277072 78.1234091,116.657443 C72.6970113,119.073431 66.8401548,118.997509 61.999997,116.919775 C62.0095588,119.629652 62.1116389,122.317727 62.3032464,124.981007 C63.714363,124.802327 65.0585145,125.421406 65.5904011,126.616043 C66.2643044,128.129655 65.3790822,129.994037 63.6132019,130.780258 C63.3766239,130.885589 63.1362417,130.966225 62.8957003,131.023253 C70.0444481,188.510415 119.076304,233 178.49926,233 C233.793313,233 280.090115,194.478187 292.016602,142.807625 C290.842746,142.332661 290,141.03115 290,139.5 C290,137.567003 291.343146,136 293,136 C293.125284,136 293.248775,136.00896 293.370026,136.02636 Z" id="Combined-Shape" fill="#F1F1F1"></path>
                    <g id="Group-7" opacity="0.399603545" transform="translate(62.000000, 0.000000)">
                        <circle id="Oval-121" fill="#D8D8D8" cx="116.5" cy="116.5" r="116.5"></circle>
                        <path d="M126,224 C185.094468,224 233,176.094468 233,117 C233,57.9055318 185.094468,10 126,10 C66.9055318,10 19,57.9055318 19,117 C19,176.094468 66.9055318,224 126,224 Z" id="Oval-121" fill="url(#radialGradient-3)"></path>
                    </g>
                    <path d="M62.8942983,132.074878 C102.000653,126.169429 123.694137,106.269217 136.791539,91.2028454 C149.888941,76.1364734 187.254305,30.742781 263.97722,37.7111233 C269.638722,41.158267 246.668904,21.4947351 244.441467,20.624963 C238.001668,21.4947352 192.385817,11.5816529 140.93857,55.0513907 C92.4380592,96.0313191 118.082001,87.4667423 62.3280026,111.001414 C60.2269,112.618987 61.3899844,131.916605 62.8942983,132.074878 Z" id="Path-31" fill="#363636"></path>
                    <path d="M84.2026054,116.761984 C84.2026054,116.761984 76.3339997,8.55302271 41.8596535,42.7834258 C7.38530734,77.0138289 38.9991333,68.0576424 25.072613,78.343897 C11.1460928,88.6301516 22.2149974,95.6725481 22.2149974,95.6725481 L51.1234055,110.077703 L77.1645652,121.948673 L80.6785032,120.249785" id="Path-32" fill="#363636" transform="translate(51.123407, 79.019585) rotate(-33.000000) translate(-51.123407, -79.019585) "></path>
                    <path d="M102.152023,90.5036888 C99.0175962,93.6709271 92.5003099,95.9764276 92.5003099,95.9764276 C92.5003099,95.9764276 53.7642259,0.160632407 96.8767599,11.656437 C102.39161,13.7575396 105.028516,14.4312863 111.247605,21.762639 C117.466695,29.0939917 120.010673,2.77140121 134.978303,18.8556537 C149.945933,34.9399062 126.761205,61.3568801 126.761205,61.3568801 C126.761205,61.3568801 110.437895,82.1310779 102.152023,90.5036888 Z" id="Path-33" fill="#363636" transform="translate(108.261290, 53.337692) rotate(-5.000000) translate(-108.261290, -53.337692) "></path>
                    <ellipse id="Oval-105" fill="#D8D8D8" cx="137" cy="162.5" rx="3" ry="3.5"></ellipse>
                    <ellipse id="Oval-105" fill="#D8D8D8" cx="277" cy="152.5" rx="3" ry="3.5"></ellipse>
                    <ellipse id="Oval-105" fill="#D8D8D8" cx="119" cy="149.5" rx="3" ry="3.5"></ellipse>
                    <ellipse id="Oval-106" fill="#D8D8D8" cx="140" cy="135.5" rx="18" ry="19.5"></ellipse>
                    <ellipse id="Oval-106" fill="#D8D8D8" cx="274" cy="126.5" rx="17.5" ry="19.5"></ellipse>
                    <path d="M200,138.882696 C200,138.882696 201.357772,140.417118 204.651507,140.387865 C207.312669,140.364229 212.045721,139.081979 212.045721,137" id="Path-42" stroke="#626262"></path>
                    <path d="M132.822672,74.7926765 C132.822672,74.7926765 162.409107,61.3556847 178.499099,91.1077336 C179.212512,92.2065158 180.740191,77.0125351 157.076562,69.2446229 C136.146621,66.0247134 132.822672,74.7926765 132.822672,74.7926765 Z" id="Path-34" fill="#626262" transform="translate(155.819743, 79.849176) rotate(-19.000000) translate(-155.819743, -79.849176) "></path>
                    <path d="M214.24776,70.9251614 C214.24776,70.9251614 243.834195,57.4881696 259.924187,87.2402185 C260.637599,88.3390007 262.165279,73.14502 238.501649,65.3771078 C217.571708,62.1571983 214.24776,70.9251614 214.24776,70.9251614 Z" id="Path-34" fill="#626262" transform="translate(237.244831, 75.981661) scale(-1, 1) rotate(-14.000000) translate(-237.244831, -75.981661) "></path>
                    <path d="M195.448582,138.575238 C195.047288,138.575238 187.915869,132.454552 195.047288,132.526097 C200.405071,134.091024 200.840577,141.438441 200.840577,141.438441 C200.840577,141.438441 198.002778,140.103158 195.448582,138.575238 Z" id="Path-36" fill="#373737" transform="translate(196.366502, 136.981958) rotate(-12.000000) translate(-196.366502, -136.981958) "></path>
                    <path d="M210.272957,137.47329 C210.272957,137.47329 212.423978,131.497567 216.293094,133.005602 C218.376895,133.846244 217.909481,135.310348 216.319101,136.490607 C214.728722,137.670866 210.272957,137.47329 210.272957,137.47329 Z" id="Path-37" fill="#373737" transform="translate(213.980903, 135.123671) rotate(-12.000000) translate(-213.980903, -135.123671) "></path>
                    <path d="M180.257329,157.729155 C180.257329,157.729155 187.558634,162.298473 190.535493,167.126266 C193.512352,171.954058 197.859205,173.72897 202.082823,173.72897 C206.30644,173.72897 208.34263,175.050551 216.18289,168.941189 C224.023151,162.831827 232.572016,164.013368 227.20967,162.727797 C221.847323,161.442226 218.133453,157.589115 216.584606,156.418778 C215.03576,155.24844 211.864845,153.771214 207.796872,156.570021 C203.728899,159.368828 203.444337,156.867279 203.229956,156.570021 C203.015574,156.272763 200.44115,151.369721 193.059821,155.582936 C185.678493,159.796152 180.257329,157.729155 180.257329,157.729155 Z" id="Path-38" fill="#8F2929" transform="translate(204.571047, 163.865681) rotate(-12.000000) translate(-204.571047, -163.865681) "></path>
                    <path d="M180.704555,157.827997 C180.704555,157.827997 188.00586,162.397315 190.982719,167.225107 C193.959578,172.052899 198.113538,173.368713 202.562345,173.940616 C205.937439,174.108891 208.789856,175.149393 216.630116,169.040031 C224.470376,162.930669 233.019242,164.11221 227.656895,162.826639 C222.294549,161.541068 214.05788,166.540106 208.998805,164.265658 C206.774675,162.537963 201.653712,162.782522 201.199321,163.165724 C199.828437,164.71276 180.704555,157.827997 180.704555,157.827997 Z" id="Path-38" fill="#730707" transform="translate(205.018272, 165.969712) rotate(-12.000000) translate(-205.018272, -165.969712) "></path>
                    <path d="M220.051794,83.1968377 C220.051794,83.1968377 217.389633,90.842975 228.169482,91.9686082 C233.153804,92.4890718 243.765088,95.1614952 254.006324,91.9686082 C255.486479,91.5071437 255.499125,89.5755842 255.499124,86.4642576 C255.499125,81.5207995 246.207025,75.4566427 238.05019,74.7047721 C229.893354,73.9529014 220.051794,83.1968377 220.051794,83.1968377 Z" id="Path-40" fill="url(#radialGradient-4)" transform="translate(237.629961, 84.085920) scale(-1, 1) rotate(9.000000) translate(-237.629961, -84.085920) "></path>
                    <path d="M135.863825,88.823044 C135.863825,88.823044 132.16209,96.4691812 147.151468,97.5948145 C154.082168,98.115278 168.837155,100.787701 183.077591,97.5948145 C185.135746,97.13335 185.153331,95.2017904 185.15333,92.0904638 C185.153331,87.1470058 172.232668,81.0828489 160.89059,80.3309783 C149.548512,79.5791077 135.863825,88.823044 135.863825,88.823044 Z" id="Path-40" fill="url(#radialGradient-4)" transform="translate(160.306263, 89.712126) scale(-1, 1) rotate(3.000000) translate(-160.306263, -89.712126) "></path>
                    <path d="M140.802554,96.9792721 C140.802554,96.9792721 148.888486,108.878704 179.592541,100.978826 C180.918924,99.3307503 172.408869,89.950845 163.018961,90.6128518 C150.979089,90.2757387 140.802554,96.9792721 140.802554,96.9792721 Z" id="Path-40" fill="#FFFFFF" transform="translate(160.266058, 97.133066) rotate(-12.000000) translate(-160.266058, -97.133066) "></path>
                    <path d="M221.109237,90.6403817 C221.109237,90.6403817 237.561182,103.712152 254.394837,90.9068585 C237.433545,74.4089003 221.109237,90.6403817 221.109237,90.6403817 Z" id="Path-41" fill="#FFFFFF" transform="translate(237.752037, 90.017264) rotate(-12.000000) translate(-237.752037, -90.017264) "></path>
                    <path d="M242.497386,94.6999962 C246.573248,94.6999962 249.877386,91.9465474 249.877386,88.5499961 C249.877386,85.1534449 246.573248,82.399996 242.497386,82.399996 C238.421525,82.399996 235.117386,85.1534449 235.117386,88.5499961 C235.117386,91.9465474 238.421525,94.6999962 242.497386,94.6999962 Z" id="Oval-113" fill="#363636" transform="translate(242.497386, 88.549996) rotate(-12.000000) translate(-242.497386, -88.549996) "></path>
                    <path d="M244.365979,95.8328346 C243.819825,95.8328346 234.457867,94.6693833 238.271294,94.8054822 C243.373689,94.9875834 249.207796,93.6721855 255.088487,89.1987678 C254.223343,88.3572568 256.489955,92.7314239 244.365979,95.8328346 Z" id="Path-41" fill="#ECECEC" transform="translate(246.224561, 92.463041) rotate(-12.000000) translate(-246.224561, -92.463041) "></path>
                    <ellipse id="Oval-113" fill="#363636" transform="translate(164.303107, 96.067072) rotate(-12.000000) translate(-164.303107, -96.067072) " cx="164.303107" cy="96.0670717" rx="7.87798886" ry="6.35026209"></ellipse>
                    <path d="M213.299988,79.664402 C213.299988,79.664402 204.713173,92.021635 210.057259,110.546902" id="Path-46" stroke="#626262"></path>
                    <g id="Right-Makeup" transform="translate(221.000000, 76.000000)">
                        <path d="M33.4969117,13.1805124 C33.4969117,13.1805124 33.1220511,14.0514957 32.1730428,14.4650724" id="Path-46" stroke="#626262" stroke-width="0.3" stroke-linecap="round" transform="translate(32.834977, 13.822792) scale(-1, 1) rotate(19.000000) translate(-32.834977, -13.822792) "></path>
                        <path d="M34.4969117,11.1805124 C34.4969117,11.1805124 34.1220511,12.0514957 33.1730428,12.4650724" id="Path-46" stroke="#626262" stroke-width="0.3" stroke-linecap="round" transform="translate(33.834977, 11.822792) scale(-1, 1) rotate(19.000000) translate(-33.834977, -11.822792) "></path>
                        <path d="M31.0032353,14.3150176 C31.0032353,14.3150176 31.0798491,15.8819531 30.435472,16.9878373" id="Path-47" stroke="#626262" stroke-width="0.3" stroke-linecap="round" transform="translate(30.935472, 15.651427) scale(-1, 1) rotate(19.000000) translate(-30.935472, -15.651427) "></path>
                        <path d="M11.4837044,21.147327 C11.4837044,21.147327 11.1088438,23.0594808 10.1598355,23.9674459" id="Path-46" stroke="#626262" stroke-width="0.3" stroke-linecap="round" transform="translate(10.821770, 22.557386) scale(-1, 1) rotate(-24.000000) translate(-10.821770, -22.557386) "></path>
                        <path d="M7.48370438,20.147327 C7.48370438,20.147327 7.10884382,22.0594808 6.15983547,22.9674459" id="Path-46" stroke="#626262" stroke-width="0.3" stroke-linecap="round" transform="translate(6.821770, 21.557386) scale(-1, 1) rotate(-24.000000) translate(-6.821770, -21.557386) "></path>
                        <path d="M25.8925052,17.8040686 C25.8925052,17.8040686 26.4506918,20.8563092 25.5372541,21.5718278" id="Path-49" stroke="#626262" stroke-width="0.3" stroke-linecap="round" transform="translate(26.037254, 19.687948) scale(-1, 1) rotate(19.000000) translate(-26.037254, -19.687948) "></path>
                        <path d="M20.9657707,19.7404708 C20.9657707,19.7404708 22.2496,22.8099726 20.9657707,24.1325416" id="Path-51" stroke="#626262" stroke-width="0.3" stroke-linecap="round" transform="translate(21.465771, 21.936506) scale(-1, 1) rotate(19.000000) translate(-21.465771, -21.936506) "></path>
                        <path d="M24.3279667,18.7716548 C24.3279667,18.7716548 24.6636083,21.8895646 23.7551871,22.8741435" id="Path-51" stroke="#626262" stroke-width="0.3" stroke-linecap="round" transform="translate(24.255187, 20.822899) scale(-1, 1) rotate(19.000000) translate(-24.255187, -20.822899) "></path>
                        <path d="M18.1292149,20.7171753 C18.1292149,20.7171753 19.5584279,23.8715676 18.8438214,25.1092461" id="Path-52" stroke="#626262" stroke-width="0.3" stroke-linecap="round" transform="translate(18.629215, 22.913211) scale(-1, 1) rotate(19.000000) translate(-18.629215, -22.913211) "></path>
                        <path d="M14.2419469,21.0084138 C14.2419469,21.0084138 14.5775885,24.1263236 13.6691673,25.1109025" id="Path-51" stroke="#626262" stroke-width="0.3" stroke-linecap="round" transform="translate(14.169167, 23.059658) scale(-1, 1) rotate(1.000000) translate(-14.169167, -23.059658) "></path>
                        <path d="M28.0471192,16.2870871 C28.0471192,16.2870871 28.3374007,19.2785368 29.7817168,19.2785369" id="Path-86" stroke="#626262" stroke-width="0.3"></path>
                        <path d="M26.8147142,3.81096241 C26.8147142,3.81096241 26.8913281,5.46425183 26.2469509,6.63108137" id="Path-47" stroke="#626262" stroke-width="0.3" stroke-linecap="round" transform="translate(26.746951, 5.221022) scale(-1, -1) rotate(33.000000) translate(-26.746951, -5.221022) "></path>
                        <path d="M28.8548267,4.82284426 C28.8548267,4.82284426 28.9314405,6.38977979 28.2870634,7.49566399" id="Path-47" stroke="#626262" stroke-width="0.3" stroke-linecap="round" transform="translate(28.787063, 6.159254) scale(-1, -1) rotate(33.000000) translate(-28.787063, -6.159254) "></path>
                        <path d="M30.8548267,6.82284426 C30.8548267,6.82284426 30.9314405,8.38977979 30.2870634,9.49566399" id="Path-47" stroke="#626262" stroke-width="0.3" stroke-linecap="round" transform="translate(30.787063, 8.159254) scale(-1, -1) rotate(33.000000) translate(-30.787063, -8.159254) "></path>
                        <path d="M8.09736157,6.08073953 C8.09736157,6.08073953 7.72250101,7.99289335 6.77349266,8.90085849" id="Path-46" stroke="#626262" stroke-width="0.3" stroke-linecap="round" transform="translate(7.435427, 7.490799) scale(-1, -1) rotate(-42.000000) translate(-7.435427, -7.490799) "></path>
                        <path d="M6.09736157,8.08073953 C6.09736157,8.08073953 5.72250101,9.99289335 4.77349266,10.9008585" id="Path-46" stroke="#626262" stroke-width="0.3" stroke-linecap="round" transform="translate(5.435427, 9.490799) scale(-1, -1) rotate(-42.000000) translate(-5.435427, -9.490799) "></path>
                        <path d="M4.09736157,11.0807395 C4.09736157,11.0807395 3.72250101,12.9928934 2.77349266,13.9008585" id="Path-46" stroke="#626262" stroke-width="0.3" stroke-linecap="round" transform="translate(3.435427, 12.490799) scale(-1, -1) rotate(-42.000000) translate(-3.435427, -12.490799) "></path>
                        <path d="M21.5381934,1.94204476 C21.5381934,1.94204476 22.0963799,4.99428534 21.1829423,5.70980395" id="Path-49" stroke="#626262" stroke-width="0.3" stroke-linecap="round" transform="translate(21.682942, 3.825924) scale(-1, -1) rotate(15.000000) translate(-21.682942, -3.825924) "></path>
                        <path d="M14.7236065,0.999574733 C14.7236065,0.999574733 16.0074358,4.06907654 14.7236065,5.39164551" id="Path-51" stroke="#626262" stroke-width="0.3" stroke-linecap="round" transform="translate(15.223607, 3.195610) scale(-1, -1) rotate(4.000000) translate(-15.223607, -3.195610) "></path>
                        <path d="M18.5594635,1.00430798 C18.5594635,1.00430798 18.8951051,4.12221778 17.9866838,5.10679668" id="Path-51" stroke="#626262" stroke-width="0.3" stroke-linecap="round" transform="translate(18.486684, 3.055552) scale(-1, -1) rotate(4.000000) translate(-18.486684, -3.055552) "></path>
                        <path d="M11.2531263,2.03783595 C11.2531263,2.03783595 12.6823392,5.1922282 11.9677328,6.42990673" id="Path-52" stroke="#626262" stroke-width="0.3" stroke-linecap="round" transform="translate(11.753126, 4.233871) scale(-1, -1) rotate(9.000000) translate(-11.753126, -4.233871) "></path>
                        <path d="M9.02895231,4.02602893 C9.02895231,4.02602893 9.36459389,7.14393873 8.45617265,8.12851763" id="Path-51" stroke="#626262" stroke-width="0.3" stroke-linecap="round" transform="translate(8.956173, 6.077273) scale(-1, -1) rotate(-24.000000) translate(-8.956173, -6.077273) "></path>
                        <path d="M23.7077996,3.12788144 C23.7077996,3.12788144 23.9980812,6.11933113 25.4423973,6.1193312" id="Path-86" stroke="#626262" stroke-width="0.3" transform="translate(24.575098, 4.623606) scale(1, -1) rotate(-10.000000) translate(-24.575098, -4.623606) "></path>
                        <path d="M32.5750906,8.7672175 C32.5750906,8.7672175 32.6517044,9.73193854 32.0073273,10.4128024" id="Path-47" stroke="#626262" stroke-width="0.3" stroke-linecap="round" transform="translate(32.507327, 9.590010) scale(-1, -1) rotate(33.000000) translate(-32.507327, -9.590010) "></path>
                        <path d="M0.601056927,18.2369228 C0.601056927,18.2369228 12.6666309,-2.50057809 33.2611346,11.3697602" id="Path-75" stroke="#373737" stroke-linecap="round"></path>
                        <path d="M0.55162274,18.2349678 C0.55162274,18.2349678 12.3071846,-4.55782349 33.3234161,11.1879429" id="Path-76" stroke="#373737"></path>
                    </g>
                    <g id="Left-Makeup" transform="translate(140.000000, 85.000000)" stroke-linecap="round">
                        <path d="M1.34846516,16.1598834 C1.34846516,16.1598834 0.973604594,18.0720372 0.0245962487,18.9800024" id="Path-46" stroke="#626262" stroke-width="0.3"></path>
                        <path d="M3.90271585,17.7528128 C3.90271585,17.7528128 3.97932968,19.3197483 3.33495257,20.4256325" id="Path-47" stroke="#626262" stroke-width="0.3"></path>
                        <path d="M6.34660613,18.5039021 C6.34660613,18.5039021 6.58556834,21.0294227 5.8700498,22.0591491" id="Path-48" stroke="#626262" stroke-width="0.3"></path>
                        <path d="M32.0877226,16.072631 C32.0877226,16.072631 31.712862,17.9847848 30.7638537,18.8927499" id="Path-46" stroke="#626262" stroke-width="0.3" transform="translate(31.425788, 17.482690) rotate(-43.000000) translate(-31.425788, -17.482690) "></path>
                        <path d="M33.3448695,14.6891212 C33.3448695,14.6891212 33.4214833,16.2560568 32.7771062,17.361941" id="Path-47" stroke="#626262" stroke-width="0.3" transform="translate(33.277106, 16.025531) rotate(-43.000000) translate(-33.277106, -16.025531) "></path>
                        <path d="M9.08235865,19.0844343 C9.08235865,19.0844343 9.6405452,22.1366749 8.72710757,22.8521935" id="Path-49" stroke="#626262" stroke-width="0.3"></path>
                        <path d="M14.4919037,19.5176673 C14.4919037,19.5176673 15.775733,22.5871691 14.4919037,23.9097381" id="Path-51" stroke="#626262" stroke-width="0.3"></path>
                        <path d="M12.0547932,19.4497182 C12.0547932,19.4497182 12.3904348,22.567628 11.4820136,23.5522069" id="Path-51" stroke="#626262" stroke-width="0.3"></path>
                        <path d="M17.4090973,19.2837215 C17.4090973,19.2837215 18.8383103,22.4381138 18.1237038,23.6757923" id="Path-52" stroke="#626262" stroke-width="0.3"></path>
                        <path d="M20.0707124,19.010903 C20.0707124,19.010903 20.628899,22.0631436 19.7154614,22.7786622" id="Path-49" stroke="#626262" stroke-width="0.3" transform="translate(20.215461, 20.894783) rotate(-18.000000) translate(-20.215461, -20.894783) "></path>
                        <path d="M25.4813953,17.45132 C25.4813953,17.45132 26.7652246,20.5208218 25.4813953,21.8433907" id="Path-51" stroke="#626262" stroke-width="0.3" transform="translate(25.981395, 19.647355) rotate(-18.000000) translate(-25.981395, -19.647355) "></path>
                        <path d="M23.0458216,18.3930736 C23.0458216,18.3930736 23.3814632,21.5109834 22.4730419,22.4955623" id="Path-51" stroke="#626262" stroke-width="0.3" transform="translate(22.973042, 20.444318) rotate(-18.000000) translate(-22.973042, -20.444318) "></path>
                        <path d="M28.4070098,16.2705414 C28.4070098,16.2705414 29.8362227,19.4249336 29.1216163,20.6626121" id="Path-52" stroke="#626262" stroke-width="0.3" transform="translate(28.907010, 18.466577) rotate(-18.000000) translate(-28.907010, -18.466577) "></path>
                        <path d="M2.0767382,12.1056924 C2.0767382,12.1056924 1.70187764,14.0178462 0.752869293,14.9258113" id="Path-46" stroke="#626262" stroke-width="0.3" transform="translate(1.414804, 13.515752) scale(1, -1) translate(-1.414804, -13.515752) "></path>
                        <path d="M3.32063257,11.2529916 C3.32063257,11.2529916 3.39724641,12.8199271 2.75286929,13.9258113" id="Path-47" stroke="#626262" stroke-width="0.3" transform="translate(3.252869, 12.589401) scale(1, -1) translate(-3.252869, -12.589401) "></path>
                        <path d="M5.22942562,9.37056433 C5.22942562,9.37056433 5.46838783,11.896085 4.75286929,12.9258113" id="Path-48" stroke="#626262" stroke-width="0.3" transform="translate(5.252869, 11.148188) scale(1, -1) translate(-5.252869, -11.148188) "></path>
                        <path d="M34.1077009,3.07263095 C34.1077009,3.07263095 33.7328404,4.98478478 32.783832,5.89274991" id="Path-46" stroke="#626262" stroke-width="0.3" transform="translate(33.445766, 4.482690) scale(1, -1) rotate(-43.000000) translate(-33.445766, -4.482690) "></path>
                        <path d="M36.3448695,4.98197762 C36.3448695,4.98197762 36.4214833,6.54891315 35.7771062,7.65479735" id="Path-47" stroke="#626262" stroke-width="0.3" transform="translate(36.277106, 6.318387) scale(1, -1) rotate(-43.000000) translate(-36.277106, -6.318387) "></path>
                        <path d="M7.10812037,7.15805213 C7.10812037,7.15805213 7.66630692,10.2102927 6.75286929,10.9258113" id="Path-49" stroke="#626262" stroke-width="0.3" transform="translate(7.252869, 9.041932) scale(1, -1) translate(-7.252869, -9.041932) "></path>
                        <path d="M10.7528693,4.53374054 C10.7528693,4.53374054 12.0366986,7.60324235 10.7528693,8.92581132" id="Path-51" stroke="#626262" stroke-width="0.3" transform="translate(11.252869, 6.729776) scale(1, -1) translate(-11.252869, -6.729776) "></path>
                        <path d="M9.32564895,5.82332261 C9.32564895,5.82332261 9.66129053,8.94123241 8.75286929,9.92581132" id="Path-51" stroke="#626262" stroke-width="0.3" transform="translate(9.252869, 7.874567) scale(1, -1) translate(-9.252869, -7.874567) "></path>
                        <path d="M16.7528693,1.53374054 C16.7528693,1.53374054 18.1820822,4.68813279 17.4674758,5.92581132" id="Path-52" stroke="#626262" stroke-width="0.3" transform="translate(17.252869, 3.729776) scale(1, -1) translate(-17.252869, -3.729776) "></path>
                        <path d="M13.7528693,3.53374054 C13.7528693,3.53374054 15.1820822,6.68813279 14.4674758,7.92581132" id="Path-52" stroke="#626262" stroke-width="0.3" transform="translate(14.252869, 5.729776) scale(1, -1) translate(-14.252869, -5.729776) "></path>
                        <path d="M20.6657994,1.24280981 C20.6657994,1.24280981 21.223986,4.29505038 20.3105484,5.01056899" id="Path-49" stroke="#626262" stroke-width="0.3" transform="translate(20.810548, 3.126689) scale(1, -1) rotate(-18.000000) translate(-20.810548, -3.126689) "></path>
                        <path d="M27.4070098,0.619408408 C27.4070098,0.619408408 28.6908391,3.68891021 27.4070098,5.01147918" id="Path-51" stroke="#626262" stroke-width="0.3" transform="translate(27.907010, 2.815444) scale(1, -1) rotate(-18.000000) translate(-27.907010, -2.815444) "></path>
                        <path d="M23.9350466,0.882498362 C23.9350466,0.882498362 24.2706882,4.00040816 23.3622669,4.98498706" id="Path-51" stroke="#626262" stroke-width="0.3" transform="translate(23.862267, 2.933743) scale(1, -1) rotate(-18.000000) translate(-23.862267, -2.933743) "></path>
                        <path d="M30.6341622,1.04702688 C30.6341622,1.04702688 32.0633751,4.20141913 31.3487686,5.43909765" id="Path-52" stroke="#626262" stroke-width="0.3" transform="translate(31.134162, 3.243062) scale(1, -1) rotate(-18.000000) translate(-31.134162, -3.243062) "></path>
                        <path d="M37.4354078,8.44286319 C37.4354078,8.44286319 23.9258346,-3.60010364 1.69869985,15.3704872" id="Path-75" stroke="#373737"></path>
                        <path d="M37.3998506,8.36556568 C37.3998506,8.36556568 22.9441553,-5.48057401 1.36715413,15.6428295" id="Path-75" stroke="#373737"></path>
                    </g>
                </g>
                <g id="Teacup-2" transform="translate(264.000000, 396.000000) scale(-1, 1) translate(-264.000000, -396.000000) translate(244.000000, 387.000000)">
                    <g id="Group-6">
                        <g id="Group-4" transform="translate(6.168088, 9.499250)">
                            <path d="M17.8345934,6.25924045 C17.8345934,6.25924045 13.1566484,4.41329273 13.1566477,1.94749368 C13.156647,-0.518305366 4.70318119,-0.776808913 4.70318119,1.94749368 C4.70318119,4.67179628 0.610182741,5.72008401 0.610182741,5.72008401 L0,6.25924045" id="Path-12" fill="#A5BADC"></path>
                            <path d="M0,6.1928803 C0,6.9092856 3.98109075,7.49004684 8.89201507,7.49004684 C13.8029394,7.49004684 17.7840301,6.9092856 17.7840301,6.1928803" id="Oval-3" fill="#A5C8FF"></path>
                        </g>
                        <path d="M22.3484344,13.8152837 C26.5238459,12.9924926 29.7189696,8.31290726 29.7189696,2.66326271 L0,2.66326271 C0,8.31327851 3.19705745,12.9912819 7.36942148,13.8149354 C9.42642207,14.4582961 12.0290437,14.8425787 14.8594848,14.8425787 C17.6894161,14.8425787 20.29161,14.4584345 22.3484344,13.8152837 Z" id="Combined-Shape" fill="#B4C9EB"></path>
                        <ellipse id="Oval-14" fill="#A5BADC" cx="14.8594848" cy="2.67166417" rx="14.8594848" ry="2.67166417"></ellipse>
                    </g>
                    <g id="Group-8" transform="translate(31.843254, 8.186531) rotate(3.000000) translate(-31.843254, -8.186531) translate(24.843254, 1.186531)" fill="#B4C9EB">
                        <path d="M6.68974697,11.3186718 C6.72775293,11.2149351 6.74858162,11.1022702 6.74858162,10.9845052 C6.74858162,10.4696415 6.35046187,10.052262 5.85935627,10.052262 C5.36825067,10.052262 4.97013092,10.4696415 4.97013092,10.9845052 C4.97013092,11.1568077 5.01471837,11.3181925 5.09245689,11.45667 C5.0879336,11.4570143 5.08357391,11.4573678 5.07938419,11.4577311 C5.13940721,11.584189 5.63360666,12.2990471 6.73762739,12.1234929 C8.24907269,11.8428995 9.39961464,10.9550403 10.027505,9.9760861 C11.1188798,8.36065547 10.9558457,6.52943774 10.8210459,5.83387542 C10.406506,3.51833477 8.07327374,0.896254299 5.47650095,1.63201462 C2.08765281,2.62007474 3.14131582,6.35821533 3.34897546,6.77315851 C3.48574274,7.25430753 3.91097564,7.60512362 4.41436507,7.60512362 C5.02824707,7.60512362 5.52589676,7.08339926 5.52589676,6.43981964 C5.52589676,5.79624003 5.02824707,5.27451566 4.41436507,5.27451566 C4.20899527,5.27451566 4.01663406,5.33290647 3.85156234,5.43471632 C3.87943913,5.0977502 3.91796968,4.89458619 4.00103595,4.60222245 C4.73795664,2.00852333 9.48621622,2.04042785 8.45951474,6.19460716 C8.45951474,6.19460716 10.7712985,7.56940013 8.97936613,9.9760861 C8.5432773,10.7108469 7.55372428,11.1576266 6.68974697,11.3186718 Z" id="Combined-Shape" transform="translate(6.974649, 6.828434) rotate(39.000000) translate(-6.974649, -6.828434) "></path>
                    </g>
                </g>
                <g id="Stars" transform="translate(79.000000, 43.000000)" fill="#FFFFFF">
                    <polygon id="Star-1" transform="translate(594.500000, 294.500000) rotate(45.000000) translate(-594.500000, -294.500000) " points="594.5 297.9093 584.246952 304.753048 591.0907 294.5 584.246952 284.246952 594.5 291.0907 604.753048 284.246952 597.9093 294.5 604.753048 304.753048"></polygon>
                    <polygon id="Star-1" transform="translate(384.500000, 454.500000) rotate(45.000000) translate(-384.500000, -454.500000) " points="384.5 457.9093 374.246952 464.753048 381.0907 454.5 374.246952 444.246952 384.5 451.0907 394.753048 444.246952 387.9093 454.5 394.753048 464.753048"></polygon>
                    <polygon id="Star-1" transform="translate(704.500000, 414.500000) rotate(45.000000) translate(-704.500000, -414.500000) " points="704.5 417.9093 694.246952 424.753048 701.0907 414.5 694.246952 404.246952 704.5 411.0907 714.753048 404.246952 707.9093 414.5 714.753048 424.753048"></polygon>
                    <polygon id="Star-1" transform="translate(454.500000, 24.500000) rotate(45.000000) translate(-454.500000, -24.500000) " points="454.5 27.9093001 444.246952 34.7530483 451.0907 24.5 444.246952 14.2469517 454.5 21.0906999 464.753048 14.2469517 457.9093 24.5 464.753048 34.7530483"></polygon>
                    <polygon id="Star-1" transform="translate(304.500000, 54.500000) rotate(45.000000) translate(-304.500000, -54.500000) " points="304.5 57.9093001 294.246952 64.7530483 301.0907 54.5 294.246952 44.2469517 304.5 51.0906999 314.753048 44.2469517 307.9093 54.5 314.753048 64.7530483"></polygon>
                    <polygon id="Star-1" transform="translate(224.500000, 194.500000) rotate(45.000000) translate(-224.500000, -194.500000) " points="224.5 197.9093 214.246952 204.753048 221.0907 194.5 214.246952 184.246952 224.5 191.0907 234.753048 184.246952 227.9093 194.5 234.753048 204.753048"></polygon>
                    <polygon id="Star-1" transform="translate(14.500000, 144.500000) rotate(45.000000) translate(-14.500000, -144.500000) " points="14.5 147.9093 4.24695167 154.753048 11.0906999 144.5 4.24695167 134.246952 14.5 141.0907 24.7530483 134.246952 17.9093001 144.5 24.7530483 154.753048"></polygon>
                    <polygon id="Star-1" transform="translate(304.500000, 404.500000) rotate(45.000000) translate(-304.500000, -404.500000) " points="304.5 407.9093 294.246952 414.753048 301.0907 404.5 294.246952 394.246952 304.5 401.0907 314.753048 394.246952 307.9093 404.5 314.753048 414.753048"></polygon>
                    <polygon id="Star-1" transform="translate(104.500000, 324.500000) rotate(45.000000) translate(-104.500000, -324.500000) " points="104.5 327.9093 94.2469517 334.753048 101.0907 324.5 94.2469517 314.246952 104.5 321.0907 114.753048 314.246952 107.9093 324.5 114.753048 334.753048"></polygon>
                    <polygon id="Star-1" transform="translate(674.500000, 224.500000) rotate(45.000000) translate(-674.500000, -224.500000) " points="674.5 227.9093 664.246952 234.753048 671.0907 224.5 664.246952 214.246952 674.5 221.0907 684.753048 214.246952 677.9093 224.5 684.753048 234.753048"></polygon>
                    <polygon id="Star-1" transform="translate(204.500000, 14.500000) rotate(45.000000) translate(-204.500000, -14.500000) " points="204.5 17.9093001 194.246952 24.7530483 201.0907 14.5 194.246952 4.24695167 204.5 11.0906999 214.753048 4.24695167 207.9093 14.5 214.753048 24.7530483"></polygon>
                </g>
            </g>
        </g>
    </g>
</svg>